<mxfile host="app.diagrams.net" modified="2024-07-02T00:11:02.904Z" agent="Mozilla/5.0 (Windows NT 10.0; Win64; x64) AppleWebKit/537.36 (KHTML, like Gecko) Chrome/126.0.0.0 Safari/537.36 Edg/126.0.0.0" etag="3VCLSVpPA4MYEhaXKb1e" version="24.6.4" type="github">
  <diagram name="Page-1" id="z5-CBBnIigoQPyKpzh3y">
    <mxGraphModel dx="5565" dy="2920" grid="0" gridSize="10" guides="1" tooltips="1" connect="1" arrows="1" fold="1" page="0" pageScale="1" pageWidth="850" pageHeight="1100" math="0" shadow="0">
      <root>
        <mxCell id="0" />
        <mxCell id="1" parent="0" />
        <UserObject label="" plantUmlData="{&#xa;  &quot;data&quot;: &quot;@startuml\npackage \&quot;Smart Irrigation System\&quot; {\n    package \&quot;Sensor Package\&quot; {\n        class MoistureSensor\n    }\n    package \&quot;Controller Package\&quot; {\n        class CentralController {\n            +processSensorData()\n            +sendCommands()\n            +updateDatabase()\n            +sendNotifications()\n        }\n    }\n    package \&quot;Valve Package\&quot; {\n        class WaterValve\n    }\n    package \&quot;Database Package\&quot; {\n        class CloudDatabase\n    }\n    package \&quot;Notification Package\&quot; {\n        class NotificationService\n    }\n    package \&quot;Mobile App Package\&quot; {\n        class MobileApp\n    }\n\n    MoistureSensor --&gt; CentralController : sends data\n    CentralController --&gt; WaterValve : sends commands\n    CentralController --&gt; CloudDatabase : updates data\n    CentralController --&gt; NotificationService : sends notifications\n    NotificationService --&gt; MobileApp : updates\n}\n@enduml\n&quot;,&#xa;  &quot;format&quot;: &quot;svg&quot;&#xa;}" id="p0RDuZN4yrUeEtZU9wO6-1">
          <mxCell style="shape=image;noLabel=1;verticalAlign=top;aspect=fixed;imageAspect=0;image=data:image/svg+xml,PD94bWwgdmVyc2lvbj0iMS4wIiBlbmNvZGluZz0idXMtYXNjaWkiIHN0YW5kYWxvbmU9Im5vIj8+PHN2ZyB4bWxucz0iaHR0cDovL3d3dy53My5vcmcvMjAwMC9zdmciIHhtbG5zOnhsaW5rPSJodHRwOi8vd3d3LnczLm9yZy8xOTk5L3hsaW5rIiBjb250ZW50U3R5bGVUeXBlPSJ0ZXh0L2NzcyIgaGVpZ2h0PSI2NjdweCIgcHJlc2VydmVBc3BlY3RSYXRpbz0ibm9uZSIgc3R5bGU9IndpZHRoOjU5N3B4O2hlaWdodDo2NjdweDtiYWNrZ3JvdW5kOiNGRkZGRkY7IiB2ZXJzaW9uPSIxLjEiIHZpZXdCb3g9IjAgMCA1OTcgNjY3IiB3aWR0aD0iNTk3cHgiIHpvb21BbmRQYW49Im1hZ25pZnkiPjxkZWZzLz48Zz48IS0tY2x1c3RlciBTbWFydCBJcnJpZ2F0aW9uIFN5c3RlbS0tPjxnIGlkPSJjbHVzdGVyX1NtYXJ0IElycmlnYXRpb24gU3lzdGVtIj48cGF0aCBkPSJNOC41LDYgTDE3Mi41LDYgQTMuNzUsMy43NSAwIDAgMSAxNzUsOC41IEwxODIsMjYuOTg0NCBMNTg3LjUsMjYuOTg0NCBBMi41LDIuNSAwIDAgMSA1OTAsMjkuNDg0NCBMNTkwLDY1Ny41IEEyLjUsMi41IDAgMCAxIDU4Ny41LDY2MCBMOC41LDY2MCBBMi41LDIuNSAwIDAgMSA2LDY1Ny41IEw2LDguNSBBMi41LDIuNSAwIDAgMSA4LjUsNiAiIGZpbGw9Im5vbmUiIHN0eWxlPSJzdHJva2U6IzAwMDAwMDtzdHJva2Utd2lkdGg6MS41OyIvPjxsaW5lIHN0eWxlPSJzdHJva2U6IzAwMDAwMDtzdHJva2Utd2lkdGg6MS41OyIgeDE9IjYiIHgyPSIxODIiIHkxPSIyNi45ODQ0IiB5Mj0iMjYuOTg0NCIvPjx0ZXh0IGZpbGw9IiMwMDAwMDAiIGZvbnQtZmFtaWx5PSJzYW5zLXNlcmlmIiBmb250LXNpemU9IjE0IiBmb250LXdlaWdodD0iYm9sZCIgbGVuZ3RoQWRqdXN0PSJzcGFjaW5nIiB0ZXh0TGVuZ3RoPSIxNjMiIHg9IjEwIiB5PSIyMS4yMzQ0Ij5TbWFydCBJcnJpZ2F0aW9uIFN5c3RlbTwvdGV4dD48L2c+PCEtLWNsdXN0ZXIgU2Vuc29yIFBhY2thZ2UtLT48ZyBpZD0iY2x1c3Rlcl9TZW5zb3IgUGFja2FnZSI+PHBhdGggZD0iTTE4Ny41LDQ3IEwyODYuNSw0NyBBMy43NSwzLjc1IDAgMCAxIDI4OSw0OS41IEwyOTYsNjcuOTg0NCBMMzQ0LjUsNjcuOTg0NCBBMi41LDIuNSAwIDAgMSAzNDcsNzAuNDg0NCBMMzQ3LDE0MS41IEEyLjUsMi41IDAgMCAxIDM0NC41LDE0NCBMMTg3LjUsMTQ0IEEyLjUsMi41IDAgMCAxIDE4NSwxNDEuNSBMMTg1LDQ5LjUgQTIuNSwyLjUgMCAwIDEgMTg3LjUsNDcgIiBmaWxsPSJub25lIiBzdHlsZT0ic3Ryb2tlOiMwMDAwMDA7c3Ryb2tlLXdpZHRoOjEuNTsiLz48bGluZSBzdHlsZT0ic3Ryb2tlOiMwMDAwMDA7c3Ryb2tlLXdpZHRoOjEuNTsiIHgxPSIxODUiIHgyPSIyOTYiIHkxPSI2Ny45ODQ0IiB5Mj0iNjcuOTg0NCIvPjx0ZXh0IGZpbGw9IiMwMDAwMDAiIGZvbnQtZmFtaWx5PSJzYW5zLXNlcmlmIiBmb250LXNpemU9IjE0IiBmb250LXdlaWdodD0iYm9sZCIgbGVuZ3RoQWRqdXN0PSJzcGFjaW5nIiB0ZXh0TGVuZ3RoPSI5OCIgeD0iMTg5IiB5PSI2Mi4yMzQ0Ij5TZW5zb3IgUGFja2FnZTwvdGV4dD48L2c+PCEtLWNsdXN0ZXIgQ29udHJvbGxlciBQYWNrYWdlLS0+PGcgaWQ9ImNsdXN0ZXJfQ29udHJvbGxlciBQYWNrYWdlIj48cGF0aCBkPSJNMTcxLjUsMTkxIEwyOTguNSwxOTEgQTMuNzUsMy43NSAwIDAgMSAzMDEsMTkzLjUgTDMwOCwyMTEuOTg0NCBMMzYwLjUsMjExLjk4NDQgQTIuNSwyLjUgMCAwIDEgMzYzLDIxNC40ODQ0IEwzNjMsMzQ1LjUgQTIuNSwyLjUgMCAwIDEgMzYwLjUsMzQ4IEwxNzEuNSwzNDggQTIuNSwyLjUgMCAwIDEgMTY5LDM0NS41IEwxNjksMTkzLjUgQTIuNSwyLjUgMCAwIDEgMTcxLjUsMTkxICIgZmlsbD0ibm9uZSIgc3R5bGU9InN0cm9rZTojMDAwMDAwO3N0cm9rZS13aWR0aDoxLjU7Ii8+PGxpbmUgc3R5bGU9InN0cm9rZTojMDAwMDAwO3N0cm9rZS13aWR0aDoxLjU7IiB4MT0iMTY5IiB4Mj0iMzA4IiB5MT0iMjExLjk4NDQiIHkyPSIyMTEuOTg0NCIvPjx0ZXh0IGZpbGw9IiMwMDAwMDAiIGZvbnQtZmFtaWx5PSJzYW5zLXNlcmlmIiBmb250LXNpemU9IjE0IiBmb250LXdlaWdodD0iYm9sZCIgbGVuZ3RoQWRqdXN0PSJzcGFjaW5nIiB0ZXh0TGVuZ3RoPSIxMjYiIHg9IjE3MyIgeT0iMjA2LjIzNDQiPkNvbnRyb2xsZXIgUGFja2FnZTwvdGV4dD48L2c+PCEtLWNsdXN0ZXIgVmFsdmUgUGFja2FnZS0tPjxnIGlkPSJjbHVzdGVyX1ZhbHZlIFBhY2thZ2UiPjxwYXRoIGQ9Ik0zMi41LDM5NSBMMTI0LjUsMzk1IEEzLjc1LDMuNzUgMCAwIDEgMTI3LDM5Ny41IEwxMzQsNDE1Ljk4NDQgTDE2MS41LDQxNS45ODQ0IEEyLjUsMi41IDAgMCAxIDE2NCw0MTguNDg0NCBMMTY0LDQ4OS41IEEyLjUsMi41IDAgMCAxIDE2MS41LDQ5MiBMMzIuNSw0OTIgQTIuNSwyLjUgMCAwIDEgMzAsNDg5LjUgTDMwLDM5Ny41IEEyLjUsMi41IDAgMCAxIDMyLjUsMzk1ICIgZmlsbD0ibm9uZSIgc3R5bGU9InN0cm9rZTojMDAwMDAwO3N0cm9rZS13aWR0aDoxLjU7Ii8+PGxpbmUgc3R5bGU9InN0cm9rZTojMDAwMDAwO3N0cm9rZS13aWR0aDoxLjU7IiB4MT0iMzAiIHgyPSIxMzQiIHkxPSI0MTUuOTg0NCIgeTI9IjQxNS45ODQ0Ii8+PHRleHQgZmlsbD0iIzAwMDAwMCIgZm9udC1mYW1pbHk9InNhbnMtc2VyaWYiIGZvbnQtc2l6ZT0iMTQiIGZvbnQtd2VpZ2h0PSJib2xkIiBsZW5ndGhBZGp1c3Q9InNwYWNpbmciIHRleHRMZW5ndGg9IjkxIiB4PSIzNCIgeT0iNDEwLjIzNDQiPlZhbHZlIFBhY2thZ2U8L3RleHQ+PC9nPjwhLS1jbHVzdGVyIERhdGFiYXNlIFBhY2thZ2UtLT48ZyBpZD0iY2x1c3Rlcl9EYXRhYmFzZSBQYWNrYWdlIj48cGF0aCBkPSJNMTkwLjUsMzk1IEwzMDMuNSwzOTUgQTMuNzUsMy43NSAwIDAgMSAzMDYsMzk3LjUgTDMxMyw0MTUuOTg0NCBMMzQxLjUsNDE1Ljk4NDQgQTIuNSwyLjUgMCAwIDEgMzQ0LDQxOC40ODQ0IEwzNDQsNDg5LjUgQTIuNSwyLjUgMCAwIDEgMzQxLjUsNDkyIEwxOTAuNSw0OTIgQTIuNSwyLjUgMCAwIDEgMTg4LDQ4OS41IEwxODgsMzk3LjUgQTIuNSwyLjUgMCAwIDEgMTkwLjUsMzk1ICIgZmlsbD0ibm9uZSIgc3R5bGU9InN0cm9rZTojMDAwMDAwO3N0cm9rZS13aWR0aDoxLjU7Ii8+PGxpbmUgc3R5bGU9InN0cm9rZTojMDAwMDAwO3N0cm9rZS13aWR0aDoxLjU7IiB4MT0iMTg4IiB4Mj0iMzEzIiB5MT0iNDE1Ljk4NDQiIHkyPSI0MTUuOTg0NCIvPjx0ZXh0IGZpbGw9IiMwMDAwMDAiIGZvbnQtZmFtaWx5PSJzYW5zLXNlcmlmIiBmb250LXNpemU9IjE0IiBmb250LXdlaWdodD0iYm9sZCIgbGVuZ3RoQWRqdXN0PSJzcGFjaW5nIiB0ZXh0TGVuZ3RoPSIxMTIiIHg9IjE5MiIgeT0iNDEwLjIzNDQiPkRhdGFiYXNlIFBhY2thZ2U8L3RleHQ+PC9nPjwhLS1jbHVzdGVyIE5vdGlmaWNhdGlvbiBQYWNrYWdlLS0+PGcgaWQ9ImNsdXN0ZXJfTm90aWZpY2F0aW9uIFBhY2thZ2UiPjxwYXRoIGQ9Ik0zNzAuNSwzOTUgTDUxMS41LDM5NSBBMy43NSwzLjc1IDAgMCAxIDUxNCwzOTcuNSBMNTIxLDQxNS45ODQ0IEw1NjMuNSw0MTUuOTg0NCBBMi41LDIuNSAwIDAgMSA1NjYsNDE4LjQ4NDQgTDU2Niw0ODkuNSBBMi41LDIuNSAwIDAgMSA1NjMuNSw0OTIgTDM3MC41LDQ5MiBBMi41LDIuNSAwIDAgMSAzNjgsNDg5LjUgTDM2OCwzOTcuNSBBMi41LDIuNSAwIDAgMSAzNzAuNSwzOTUgIiBmaWxsPSJub25lIiBzdHlsZT0ic3Ryb2tlOiMwMDAwMDA7c3Ryb2tlLXdpZHRoOjEuNTsiLz48bGluZSBzdHlsZT0ic3Ryb2tlOiMwMDAwMDA7c3Ryb2tlLXdpZHRoOjEuNTsiIHgxPSIzNjgiIHgyPSI1MjEiIHkxPSI0MTUuOTg0NCIgeTI9IjQxNS45ODQ0Ii8+PHRleHQgZmlsbD0iIzAwMDAwMCIgZm9udC1mYW1pbHk9InNhbnMtc2VyaWYiIGZvbnQtc2l6ZT0iMTQiIGZvbnQtd2VpZ2h0PSJib2xkIiBsZW5ndGhBZGp1c3Q9InNwYWNpbmciIHRleHRMZW5ndGg9IjE0MCIgeD0iMzcyIiB5PSI0MTAuMjM0NCI+Tm90aWZpY2F0aW9uIFBhY2thZ2U8L3RleHQ+PC9nPjwhLS1jbHVzdGVyIE1vYmlsZSBBcHAgUGFja2FnZS0tPjxnIGlkPSJjbHVzdGVyX01vYmlsZSBBcHAgUGFja2FnZSI+PHBhdGggZD0iTTM5OC41LDUzOSBMNTI1LjUsNTM5IEEzLjc1LDMuNzUgMCAwIDEgNTI4LDU0MS41IEw1MzUsNTU5Ljk4NDQgTDUzNS41LDU1OS45ODQ0IEEyLjUsMi41IDAgMCAxIDUzOCw1NjIuNDg0NCBMNTM4LDYzMy41IEEyLjUsMi41IDAgMCAxIDUzNS41LDYzNiBMMzk4LjUsNjM2IEEyLjUsMi41IDAgMCAxIDM5Niw2MzMuNSBMMzk2LDU0MS41IEEyLjUsMi41IDAgMCAxIDM5OC41LDUzOSAiIGZpbGw9Im5vbmUiIHN0eWxlPSJzdHJva2U6IzAwMDAwMDtzdHJva2Utd2lkdGg6MS41OyIvPjxsaW5lIHN0eWxlPSJzdHJva2U6IzAwMDAwMDtzdHJva2Utd2lkdGg6MS41OyIgeDE9IjM5NiIgeDI9IjUzNSIgeTE9IjU1OS45ODQ0IiB5Mj0iNTU5Ljk4NDQiLz48dGV4dCBmaWxsPSIjMDAwMDAwIiBmb250LWZhbWlseT0ic2Fucy1zZXJpZiIgZm9udC1zaXplPSIxNCIgZm9udC13ZWlnaHQ9ImJvbGQiIGxlbmd0aEFkanVzdD0ic3BhY2luZyIgdGV4dExlbmd0aD0iMTI2IiB4PSI0MDAiIHk9IjU1NC4yMzQ0Ij5Nb2JpbGUgQXBwIFBhY2thZ2U8L3RleHQ+PC9nPjwhLS1jbGFzcyBNb2lzdHVyZVNlbnNvci0tPjxnIGlkPSJlbGVtX01vaXN0dXJlU2Vuc29yIj48cmVjdCBjb2RlTGluZT0iMyIgZmlsbD0iI0YxRjFGMSIgaGVpZ2h0PSI0OCIgaWQ9Ik1vaXN0dXJlU2Vuc29yIiByeD0iMi41IiByeT0iMi41IiBzdHlsZT0ic3Ryb2tlOiMxODE4MTg7c3Ryb2tlLXdpZHRoOjAuNTsiIHdpZHRoPSIxMzAiIHg9IjIwMSIgeT0iODAiLz48ZWxsaXBzZSBjeD0iMjE2IiBjeT0iOTYiIGZpbGw9IiNBREQxQjIiIHJ4PSIxMSIgcnk9IjExIiBzdHlsZT0ic3Ryb2tlOiMxODE4MTg7c3Ryb2tlLXdpZHRoOjEuMDsiLz48cGF0aCBkPSJNMjEzLjYyNSwxMDAuMjUgTDIxMy42MjUsMTAyIEwyMTguNTYyNSwxMDIgTDIxOC41NjI1LDEwMC4yNSBMMjEzLjYyNSwxMDAuMjUgWiBNMjE0LjMxMjUsMTAwLjkzNzUgUTIxNC4zMTI1LDEwMC45Mzc1IDIxNC4zMTI1LDkxLjc1IEwyMTIuNTYyNSw5MS43NSBRMjEyLjU2MjUsOTEuNzUgMjEyLjU2MjUsMTAwLjkzNzUgTDIxNC4zMTI1LDEwMC45Mzc1IFogTTIxNy44NzUsMTAwLjkzNzUgTDIxOS42MjUsMTAwLjkzNzUgUTIxOS42MjUsMTAwLjkzNzUgMjE5LjYyNSw5OC4xMjUgTDIxNy44NzUsOTguMTI1IFEyMTcuODc1LDk4LjEyNSAyMTcuODc1LDEwMC45Mzc1IFogTTIxNy44NzUsOTEuNzUgUTIxNy44NzUsOTEuNzUgMjE3Ljg3NSw5NC41NjI1IEwyMTkuNjI1LDk0LjU2MjUgUTIxOS42MjUsOTQuNTYyNSAyMTkuNjI1LDkxLjc1IEwyMTcuODc1LDkxLjc1IFogTTIxMy42MjUsOTIuNDM3NSBMMjE4LjU2MjUsOTIuNDM3NSBMMjE4LjU2MjUsOTAuNjg3NSBMMjEzLjYyNSw5MC42ODc1IEwyMTMuNjI1LDkyLjQzNzUgWiAiIGZpbGw9IiMwMDAwMDAiLz48dGV4dCBmaWxsPSIjMDAwMDAwIiBmb250LWZhbWlseT0ic2Fucy1zZXJpZiIgZm9udC1zaXplPSIxNCIgbGVuZ3RoQWRqdXN0PSJzcGFjaW5nIiB0ZXh0TGVuZ3RoPSI5OCIgeD0iMjMwIiB5PSIxMDEuNzQyMiI+TW9pc3R1cmVTZW5zb3I8L3RleHQ+PGxpbmUgc3R5bGU9InN0cm9rZTojMTgxODE4O3N0cm9rZS13aWR0aDowLjU7IiB4MT0iMjAyIiB4Mj0iMzMwIiB5MT0iMTEyIiB5Mj0iMTEyIi8+PGxpbmUgc3R5bGU9InN0cm9rZTojMTgxODE4O3N0cm9rZS13aWR0aDowLjU7IiB4MT0iMjAyIiB4Mj0iMzMwIiB5MT0iMTIwIiB5Mj0iMTIwIi8+PC9nPjwhLS1jbGFzcyBDZW50cmFsQ29udHJvbGxlci0tPjxnIGlkPSJlbGVtX0NlbnRyYWxDb250cm9sbGVyIj48cmVjdCBjb2RlTGluZT0iNiIgZmlsbD0iI0YxRjFGMSIgaGVpZ2h0PSIxMDcuOTM3NSIgaWQ9IkNlbnRyYWxDb250cm9sbGVyIiByeD0iMi41IiByeT0iMi41IiBzdHlsZT0ic3Ryb2tlOiMxODE4MTg7c3Ryb2tlLXdpZHRoOjAuNTsiIHdpZHRoPSIxNjEiIHg9IjE4NS41IiB5PSIyMjQiLz48ZWxsaXBzZSBjeD0iMjA1IiBjeT0iMjQwIiBmaWxsPSIjQUREMUIyIiByeD0iMTEiIHJ5PSIxMSIgc3R5bGU9InN0cm9rZTojMTgxODE4O3N0cm9rZS13aWR0aDoxLjA7Ii8+PHBhdGggZD0iTTIwMi42MjUsMjQ0LjI1IEwyMDIuNjI1LDI0NiBMMjA3LjU2MjUsMjQ2IEwyMDcuNTYyNSwyNDQuMjUgTDIwMi42MjUsMjQ0LjI1IFogTTIwMy4zMTI1LDI0NC45Mzc1IFEyMDMuMzEyNSwyNDQuOTM3NSAyMDMuMzEyNSwyMzUuNzUgTDIwMS41NjI1LDIzNS43NSBRMjAxLjU2MjUsMjM1Ljc1IDIwMS41NjI1LDI0NC45Mzc1IEwyMDMuMzEyNSwyNDQuOTM3NSBaIE0yMDYuODc1LDI0NC45Mzc1IEwyMDguNjI1LDI0NC45Mzc1IFEyMDguNjI1LDI0NC45Mzc1IDIwOC42MjUsMjQyLjEyNSBMMjA2Ljg3NSwyNDIuMTI1IFEyMDYuODc1LDI0Mi4xMjUgMjA2Ljg3NSwyNDQuOTM3NSBaIE0yMDYuODc1LDIzNS43NSBRMjA2Ljg3NSwyMzUuNzUgMjA2Ljg3NSwyMzguNTYyNSBMMjA4LjYyNSwyMzguNTYyNSBRMjA4LjYyNSwyMzguNTYyNSAyMDguNjI1LDIzNS43NSBMMjA2Ljg3NSwyMzUuNzUgWiBNMjAyLjYyNSwyMzYuNDM3NSBMMjA3LjU2MjUsMjM2LjQzNzUgTDIwNy41NjI1LDIzNC42ODc1IEwyMDIuNjI1LDIzNC42ODc1IEwyMDIuNjI1LDIzNi40Mzc1IFogIiBmaWxsPSIjMDAwMDAwIi8+PHRleHQgZmlsbD0iIzAwMDAwMCIgZm9udC1mYW1pbHk9InNhbnMtc2VyaWYiIGZvbnQtc2l6ZT0iMTQiIGxlbmd0aEFkanVzdD0ic3BhY2luZyIgdGV4dExlbmd0aD0iMTE5IiB4PSIyMjAiIHk9IjI0NS43NDIyIj5DZW50cmFsQ29udHJvbGxlcjwvdGV4dD48bGluZSBzdHlsZT0ic3Ryb2tlOiMxODE4MTg7c3Ryb2tlLXdpZHRoOjAuNTsiIHgxPSIxODYuNSIgeDI9IjM0NS41IiB5MT0iMjU2IiB5Mj0iMjU2Ii8+PGxpbmUgc3R5bGU9InN0cm9rZTojMTgxODE4O3N0cm9rZS13aWR0aDowLjU7IiB4MT0iMTg2LjUiIHgyPSIzNDUuNSIgeTE9IjI2NCIgeTI9IjI2NCIvPjxlbGxpcHNlIGN4PSIxOTYuNSIgY3k9IjI3Ni45OTIyIiBmaWxsPSIjODRCRTg0IiByeD0iMyIgcnk9IjMiIHN0eWxlPSJzdHJva2U6IzAzODA0ODtzdHJva2Utd2lkdGg6MS4wOyIvPjx0ZXh0IGZpbGw9IiMwMDAwMDAiIGZvbnQtZmFtaWx5PSJzYW5zLXNlcmlmIiBmb250LXNpemU9IjE0IiBsZW5ndGhBZGp1c3Q9InNwYWNpbmciIHRleHRMZW5ndGg9IjEzNSIgeD0iMjA1LjUiIHk9IjI4MS4yMzQ0Ij5wcm9jZXNzU2Vuc29yRGF0YSgpPC90ZXh0PjxlbGxpcHNlIGN4PSIxOTYuNSIgY3k9IjI5MS45NzY2IiBmaWxsPSIjODRCRTg0IiByeD0iMyIgcnk9IjMiIHN0eWxlPSJzdHJva2U6IzAzODA0ODtzdHJva2Utd2lkdGg6MS4wOyIvPjx0ZXh0IGZpbGw9IiMwMDAwMDAiIGZvbnQtZmFtaWx5PSJzYW5zLXNlcmlmIiBmb250LXNpemU9IjE0IiBsZW5ndGhBZGp1c3Q9InNwYWNpbmciIHRleHRMZW5ndGg9IjEwMiIgeD0iMjA1LjUiIHk9IjI5Ni4yMTg4Ij5zZW5kQ29tbWFuZHMoKTwvdGV4dD48ZWxsaXBzZSBjeD0iMTk2LjUiIGN5PSIzMDYuOTYwOSIgZmlsbD0iIzg0QkU4NCIgcng9IjMiIHJ5PSIzIiBzdHlsZT0ic3Ryb2tlOiMwMzgwNDg7c3Ryb2tlLXdpZHRoOjEuMDsiLz48dGV4dCBmaWxsPSIjMDAwMDAwIiBmb250LWZhbWlseT0ic2Fucy1zZXJpZiIgZm9udC1zaXplPSIxNCIgbGVuZ3RoQWRqdXN0PSJzcGFjaW5nIiB0ZXh0TGVuZ3RoPSIxMTQiIHg9IjIwNS41IiB5PSIzMTEuMjAzMSI+dXBkYXRlRGF0YWJhc2UoKTwvdGV4dD48ZWxsaXBzZSBjeD0iMTk2LjUiIGN5PSIzMjEuOTQ1MyIgZmlsbD0iIzg0QkU4NCIgcng9IjMiIHJ5PSIzIiBzdHlsZT0ic3Ryb2tlOiMwMzgwNDg7c3Ryb2tlLXdpZHRoOjEuMDsiLz48dGV4dCBmaWxsPSIjMDAwMDAwIiBmb250LWZhbWlseT0ic2Fucy1zZXJpZiIgZm9udC1zaXplPSIxNCIgbGVuZ3RoQWRqdXN0PSJzcGFjaW5nIiB0ZXh0TGVuZ3RoPSIxMzUiIHg9IjIwNS41IiB5PSIzMjYuMTg3NSI+c2VuZE5vdGlmaWNhdGlvbnMoKTwvdGV4dD48L2c+PCEtLWNsYXNzIFdhdGVyVmFsdmUtLT48ZyBpZD0iZWxlbV9XYXRlclZhbHZlIj48cmVjdCBjb2RlTGluZT0iMTQiIGZpbGw9IiNGMUYxRjEiIGhlaWdodD0iNDgiIGlkPSJXYXRlclZhbHZlIiByeD0iMi41IiByeT0iMi41IiBzdHlsZT0ic3Ryb2tlOiMxODE4MTg7c3Ryb2tlLXdpZHRoOjAuNTsiIHdpZHRoPSIxMDIiIHg9IjQ2IiB5PSI0MjgiLz48ZWxsaXBzZSBjeD0iNjEiIGN5PSI0NDQiIGZpbGw9IiNBREQxQjIiIHJ4PSIxMSIgcnk9IjExIiBzdHlsZT0ic3Ryb2tlOiMxODE4MTg7c3Ryb2tlLXdpZHRoOjEuMDsiLz48cGF0aCBkPSJNNTguNjI1LDQ0OC4yNSBMNTguNjI1LDQ1MCBMNjMuNTYyNSw0NTAgTDYzLjU2MjUsNDQ4LjI1IEw1OC42MjUsNDQ4LjI1IFogTTU5LjMxMjUsNDQ4LjkzNzUgUTU5LjMxMjUsNDQ4LjkzNzUgNTkuMzEyNSw0MzkuNzUgTDU3LjU2MjUsNDM5Ljc1IFE1Ny41NjI1LDQzOS43NSA1Ny41NjI1LDQ0OC45Mzc1IEw1OS4zMTI1LDQ0OC45Mzc1IFogTTYyLjg3NSw0NDguOTM3NSBMNjQuNjI1LDQ0OC45Mzc1IFE2NC42MjUsNDQ4LjkzNzUgNjQuNjI1LDQ0Ni4xMjUgTDYyLjg3NSw0NDYuMTI1IFE2Mi44NzUsNDQ2LjEyNSA2Mi44NzUsNDQ4LjkzNzUgWiBNNjIuODc1LDQzOS43NSBRNjIuODc1LDQzOS43NSA2Mi44NzUsNDQyLjU2MjUgTDY0LjYyNSw0NDIuNTYyNSBRNjQuNjI1LDQ0Mi41NjI1IDY0LjYyNSw0MzkuNzUgTDYyLjg3NSw0MzkuNzUgWiBNNTguNjI1LDQ0MC40Mzc1IEw2My41NjI1LDQ0MC40Mzc1IEw2My41NjI1LDQzOC42ODc1IEw1OC42MjUsNDM4LjY4NzUgTDU4LjYyNSw0NDAuNDM3NSBaICIgZmlsbD0iIzAwMDAwMCIvPjx0ZXh0IGZpbGw9IiMwMDAwMDAiIGZvbnQtZmFtaWx5PSJzYW5zLXNlcmlmIiBmb250LXNpemU9IjE0IiBsZW5ndGhBZGp1c3Q9InNwYWNpbmciIHRleHRMZW5ndGg9IjcwIiB4PSI3NSIgeT0iNDQ5Ljc0MjIiPldhdGVyVmFsdmU8L3RleHQ+PGxpbmUgc3R5bGU9InN0cm9rZTojMTgxODE4O3N0cm9rZS13aWR0aDowLjU7IiB4MT0iNDciIHgyPSIxNDciIHkxPSI0NjAiIHkyPSI0NjAiLz48bGluZSBzdHlsZT0ic3Ryb2tlOiMxODE4MTg7c3Ryb2tlLXdpZHRoOjAuNTsiIHgxPSI0NyIgeDI9IjE0NyIgeTE9IjQ2OCIgeTI9IjQ2OCIvPjwvZz48IS0tY2xhc3MgQ2xvdWREYXRhYmFzZS0tPjxnIGlkPSJlbGVtX0Nsb3VkRGF0YWJhc2UiPjxyZWN0IGNvZGVMaW5lPSIxNyIgZmlsbD0iI0YxRjFGMSIgaGVpZ2h0PSI0OCIgaWQ9IkNsb3VkRGF0YWJhc2UiIHJ4PSIyLjUiIHJ5PSIyLjUiIHN0eWxlPSJzdHJva2U6IzE4MTgxODtzdHJva2Utd2lkdGg6MC41OyIgd2lkdGg9IjEyMyIgeD0iMjA0LjUiIHk9IjQyOCIvPjxlbGxpcHNlIGN4PSIyMTkuNSIgY3k9IjQ0NCIgZmlsbD0iI0FERDFCMiIgcng9IjExIiByeT0iMTEiIHN0eWxlPSJzdHJva2U6IzE4MTgxODtzdHJva2Utd2lkdGg6MS4wOyIvPjxwYXRoIGQ9Ik0yMTcuMTI1LDQ0OC4yNSBMMjE3LjEyNSw0NTAgTDIyMi4wNjI1LDQ1MCBMMjIyLjA2MjUsNDQ4LjI1IEwyMTcuMTI1LDQ0OC4yNSBaIE0yMTcuODEyNSw0NDguOTM3NSBRMjE3LjgxMjUsNDQ4LjkzNzUgMjE3LjgxMjUsNDM5Ljc1IEwyMTYuMDYyNSw0MzkuNzUgUTIxNi4wNjI1LDQzOS43NSAyMTYuMDYyNSw0NDguOTM3NSBMMjE3LjgxMjUsNDQ4LjkzNzUgWiBNMjIxLjM3NSw0NDguOTM3NSBMMjIzLjEyNSw0NDguOTM3NSBRMjIzLjEyNSw0NDguOTM3NSAyMjMuMTI1LDQ0Ni4xMjUgTDIyMS4zNzUsNDQ2LjEyNSBRMjIxLjM3NSw0NDYuMTI1IDIyMS4zNzUsNDQ4LjkzNzUgWiBNMjIxLjM3NSw0MzkuNzUgUTIyMS4zNzUsNDM5Ljc1IDIyMS4zNzUsNDQyLjU2MjUgTDIyMy4xMjUsNDQyLjU2MjUgUTIyMy4xMjUsNDQyLjU2MjUgMjIzLjEyNSw0MzkuNzUgTDIyMS4zNzUsNDM5Ljc1IFogTTIxNy4xMjUsNDQwLjQzNzUgTDIyMi4wNjI1LDQ0MC40Mzc1IEwyMjIuMDYyNSw0MzguNjg3NSBMMjE3LjEyNSw0MzguNjg3NSBMMjE3LjEyNSw0NDAuNDM3NSBaICIgZmlsbD0iIzAwMDAwMCIvPjx0ZXh0IGZpbGw9IiMwMDAwMDAiIGZvbnQtZmFtaWx5PSJzYW5zLXNlcmlmIiBmb250LXNpemU9IjE0IiBsZW5ndGhBZGp1c3Q9InNwYWNpbmciIHRleHRMZW5ndGg9IjkxIiB4PSIyMzMuNSIgeT0iNDQ5Ljc0MjIiPkNsb3VkRGF0YWJhc2U8L3RleHQ+PGxpbmUgc3R5bGU9InN0cm9rZTojMTgxODE4O3N0cm9rZS13aWR0aDowLjU7IiB4MT0iMjA1LjUiIHgyPSIzMjYuNSIgeTE9IjQ2MCIgeTI9IjQ2MCIvPjxsaW5lIHN0eWxlPSJzdHJva2U6IzE4MTgxODtzdHJva2Utd2lkdGg6MC41OyIgeDE9IjIwNS41IiB4Mj0iMzI2LjUiIHkxPSI0NjgiIHkyPSI0NjgiLz48L2c+PCEtLWNsYXNzIE5vdGlmaWNhdGlvblNlcnZpY2UtLT48ZyBpZD0iZWxlbV9Ob3RpZmljYXRpb25TZXJ2aWNlIj48cmVjdCBjb2RlTGluZT0iMjAiIGZpbGw9IiNGMUYxRjEiIGhlaWdodD0iNDgiIGlkPSJOb3RpZmljYXRpb25TZXJ2aWNlIiByeD0iMi41IiByeT0iMi41IiBzdHlsZT0ic3Ryb2tlOiMxODE4MTg7c3Ryb2tlLXdpZHRoOjAuNTsiIHdpZHRoPSIxNjUiIHg9IjM4NC41IiB5PSI0MjgiLz48ZWxsaXBzZSBjeD0iMzk5LjUiIGN5PSI0NDQiIGZpbGw9IiNBREQxQjIiIHJ4PSIxMSIgcnk9IjExIiBzdHlsZT0ic3Ryb2tlOiMxODE4MTg7c3Ryb2tlLXdpZHRoOjEuMDsiLz48cGF0aCBkPSJNMzk3LjEyNSw0NDguMjUgTDM5Ny4xMjUsNDUwIEw0MDIuMDYyNSw0NTAgTDQwMi4wNjI1LDQ0OC4yNSBMMzk3LjEyNSw0NDguMjUgWiBNMzk3LjgxMjUsNDQ4LjkzNzUgUTM5Ny44MTI1LDQ0OC45Mzc1IDM5Ny44MTI1LDQzOS43NSBMMzk2LjA2MjUsNDM5Ljc1IFEzOTYuMDYyNSw0MzkuNzUgMzk2LjA2MjUsNDQ4LjkzNzUgTDM5Ny44MTI1LDQ0OC45Mzc1IFogTTQwMS4zNzUsNDQ4LjkzNzUgTDQwMy4xMjUsNDQ4LjkzNzUgUTQwMy4xMjUsNDQ4LjkzNzUgNDAzLjEyNSw0NDYuMTI1IEw0MDEuMzc1LDQ0Ni4xMjUgUTQwMS4zNzUsNDQ2LjEyNSA0MDEuMzc1LDQ0OC45Mzc1IFogTTQwMS4zNzUsNDM5Ljc1IFE0MDEuMzc1LDQzOS43NSA0MDEuMzc1LDQ0Mi41NjI1IEw0MDMuMTI1LDQ0Mi41NjI1IFE0MDMuMTI1LDQ0Mi41NjI1IDQwMy4xMjUsNDM5Ljc1IEw0MDEuMzc1LDQzOS43NSBaIE0zOTcuMTI1LDQ0MC40Mzc1IEw0MDIuMDYyNSw0NDAuNDM3NSBMNDAyLjA2MjUsNDM4LjY4NzUgTDM5Ny4xMjUsNDM4LjY4NzUgTDM5Ny4xMjUsNDQwLjQzNzUgWiAiIGZpbGw9IiMwMDAwMDAiLz48dGV4dCBmaWxsPSIjMDAwMDAwIiBmb250LWZhbWlseT0ic2Fucy1zZXJpZiIgZm9udC1zaXplPSIxNCIgbGVuZ3RoQWRqdXN0PSJzcGFjaW5nIiB0ZXh0TGVuZ3RoPSIxMzMiIHg9IjQxMy41IiB5PSI0NDkuNzQyMiI+Tm90aWZpY2F0aW9uU2VydmljZTwvdGV4dD48bGluZSBzdHlsZT0ic3Ryb2tlOiMxODE4MTg7c3Ryb2tlLXdpZHRoOjAuNTsiIHgxPSIzODUuNSIgeDI9IjU0OC41IiB5MT0iNDYwIiB5Mj0iNDYwIi8+PGxpbmUgc3R5bGU9InN0cm9rZTojMTgxODE4O3N0cm9rZS13aWR0aDowLjU7IiB4MT0iMzg1LjUiIHgyPSI1NDguNSIgeTE9IjQ2OCIgeTI9IjQ2OCIvPjwvZz48IS0tY2xhc3MgTW9iaWxlQXBwLS0+PGcgaWQ9ImVsZW1fTW9iaWxlQXBwIj48cmVjdCBjb2RlTGluZT0iMjMiIGZpbGw9IiNGMUYxRjEiIGhlaWdodD0iNDgiIGlkPSJNb2JpbGVBcHAiIHJ4PSIyLjUiIHJ5PSIyLjUiIHN0eWxlPSJzdHJva2U6IzE4MTgxODtzdHJva2Utd2lkdGg6MC41OyIgd2lkdGg9Ijk1IiB4PSI0MTkuNSIgeT0iNTcyIi8+PGVsbGlwc2UgY3g9IjQzNC41IiBjeT0iNTg4IiBmaWxsPSIjQUREMUIyIiByeD0iMTEiIHJ5PSIxMSIgc3R5bGU9InN0cm9rZTojMTgxODE4O3N0cm9rZS13aWR0aDoxLjA7Ii8+PHBhdGggZD0iTTQzMi4xMjUsNTkyLjI1IEw0MzIuMTI1LDU5NCBMNDM3LjA2MjUsNTk0IEw0MzcuMDYyNSw1OTIuMjUgTDQzMi4xMjUsNTkyLjI1IFogTTQzMi44MTI1LDU5Mi45Mzc1IFE0MzIuODEyNSw1OTIuOTM3NSA0MzIuODEyNSw1ODMuNzUgTDQzMS4wNjI1LDU4My43NSBRNDMxLjA2MjUsNTgzLjc1IDQzMS4wNjI1LDU5Mi45Mzc1IEw0MzIuODEyNSw1OTIuOTM3NSBaIE00MzYuMzc1LDU5Mi45Mzc1IEw0MzguMTI1LDU5Mi45Mzc1IFE0MzguMTI1LDU5Mi45Mzc1IDQzOC4xMjUsNTkwLjEyNSBMNDM2LjM3NSw1OTAuMTI1IFE0MzYuMzc1LDU5MC4xMjUgNDM2LjM3NSw1OTIuOTM3NSBaIE00MzYuMzc1LDU4My43NSBRNDM2LjM3NSw1ODMuNzUgNDM2LjM3NSw1ODYuNTYyNSBMNDM4LjEyNSw1ODYuNTYyNSBRNDM4LjEyNSw1ODYuNTYyNSA0MzguMTI1LDU4My43NSBMNDM2LjM3NSw1ODMuNzUgWiBNNDMyLjEyNSw1ODQuNDM3NSBMNDM3LjA2MjUsNTg0LjQzNzUgTDQzNy4wNjI1LDU4Mi42ODc1IEw0MzIuMTI1LDU4Mi42ODc1IEw0MzIuMTI1LDU4NC40Mzc1IFogIiBmaWxsPSIjMDAwMDAwIi8+PHRleHQgZmlsbD0iIzAwMDAwMCIgZm9udC1mYW1pbHk9InNhbnMtc2VyaWYiIGZvbnQtc2l6ZT0iMTQiIGxlbmd0aEFkanVzdD0ic3BhY2luZyIgdGV4dExlbmd0aD0iNjMiIHg9IjQ0OC41IiB5PSI1OTMuNzQyMiI+TW9iaWxlQXBwPC90ZXh0PjxsaW5lIHN0eWxlPSJzdHJva2U6IzE4MTgxODtzdHJva2Utd2lkdGg6MC41OyIgeDE9IjQyMC41IiB4Mj0iNTEzLjUiIHkxPSI2MDQiIHkyPSI2MDQiLz48bGluZSBzdHlsZT0ic3Ryb2tlOiMxODE4MTg7c3Ryb2tlLXdpZHRoOjAuNTsiIHgxPSI0MjAuNSIgeDI9IjUxMy41IiB5MT0iNjEyIiB5Mj0iNjEyIi8+PC9nPjwhLS1saW5rIE1vaXN0dXJlU2Vuc29yIHRvIENlbnRyYWxDb250cm9sbGVyLS0+PGcgaWQ9ImxpbmtfTW9pc3R1cmVTZW5zb3JfQ2VudHJhbENvbnRyb2xsZXIiPjxwYXRoIGNvZGVMaW5lPSIyNiIgZD0iTTI2NiwxMjguMiBDMjY2LDE1Mi41OSAyNjYsMTg1LjggMjY2LDIxNy44NSAiIGZpbGw9Im5vbmUiIGlkPSJNb2lzdHVyZVNlbnNvci10by1DZW50cmFsQ29udHJvbGxlciIgc3R5bGU9InN0cm9rZTojMTgxODE4O3N0cm9rZS13aWR0aDoxLjA7Ii8+PHBvbHlnb24gZmlsbD0iIzE4MTgxOCIgcG9pbnRzPSIyNjYsMjIzLjg1LDI3MCwyMTQuODUsMjY2LDIxOC44NSwyNjIsMjE0Ljg1LDI2NiwyMjMuODUiIHN0eWxlPSJzdHJva2U6IzE4MTgxODtzdHJva2Utd2lkdGg6MS4wOyIvPjx0ZXh0IGZpbGw9IiMwMDAwMDAiIGZvbnQtZmFtaWx5PSJzYW5zLXNlcmlmIiBmb250LXNpemU9IjEzIiBsZW5ndGhBZGp1c3Q9InNwYWNpbmciIHRleHRMZW5ndGg9IjY5IiB4PSIyNjciIHk9IjE3My4yODkxIj5zZW5kcyBkYXRhPC90ZXh0PjwvZz48IS0tbGluayBDZW50cmFsQ29udHJvbGxlciB0byBXYXRlclZhbHZlLS0+PGcgaWQ9ImxpbmtfQ2VudHJhbENvbnRyb2xsZXJfV2F0ZXJWYWx2ZSI+PHBhdGggY29kZUxpbmU9IjI3IiBkPSJNMTk0LjQxLDMzMi4wMyBDMTgyLjQyLDM0Mi4xMiAxNzAuNDksMzUyLjk4IDE2MCwzNjQgQzE0MS4xLDM4My44NSAxMjYuMzkyNiw0MDQuNTU0NiAxMTQuNTIyNiw0MjIuODc0NiAiIGZpbGw9Im5vbmUiIGlkPSJDZW50cmFsQ29udHJvbGxlci10by1XYXRlclZhbHZlIiBzdHlsZT0ic3Ryb2tlOiMxODE4MTg7c3Ryb2tlLXdpZHRoOjEuMDsiLz48cG9seWdvbiBmaWxsPSIjMTgxODE4IiBwb2ludHM9IjExMS4yNiw0MjcuOTEsMTE5LjUxMDgsNDIyLjUzMTksMTEzLjk3ODgsNDIzLjcxMzgsMTEyLjc5NjksNDE4LjE4MTgsMTExLjI2LDQyNy45MSIgc3R5bGU9InN0cm9rZTojMTgxODE4O3N0cm9rZS13aWR0aDoxLjA7Ii8+PHRleHQgZmlsbD0iIzAwMDAwMCIgZm9udC1mYW1pbHk9InNhbnMtc2VyaWYiIGZvbnQtc2l6ZT0iMTMiIGxlbmd0aEFkanVzdD0ic3BhY2luZyIgdGV4dExlbmd0aD0iOTYiIHg9IjE2MSIgeT0iMzc3LjI4OTEiPnNlbmRzIGNvbW1hbmRzPC90ZXh0PjwvZz48IS0tbGluayBDZW50cmFsQ29udHJvbGxlciB0byBDbG91ZERhdGFiYXNlLS0+PGcgaWQ9ImxpbmtfQ2VudHJhbENvbnRyb2xsZXJfQ2xvdWREYXRhYmFzZSI+PHBhdGggY29kZUxpbmU9IjI4IiBkPSJNMjY2LDMzMi4wMSBDMjY2LDM2My45OSAyNjYsMzk3LjE1IDI2Niw0MjEuNTkgIiBmaWxsPSJub25lIiBpZD0iQ2VudHJhbENvbnRyb2xsZXItdG8tQ2xvdWREYXRhYmFzZSIgc3R5bGU9InN0cm9rZTojMTgxODE4O3N0cm9rZS13aWR0aDoxLjA7Ii8+PHBvbHlnb24gZmlsbD0iIzE4MTgxOCIgcG9pbnRzPSIyNjYsNDI3LjU5LDI3MCw0MTguNTksMjY2LDQyMi41OSwyNjIsNDE4LjU5LDI2Niw0MjcuNTkiIHN0eWxlPSJzdHJva2U6IzE4MTgxODtzdHJva2Utd2lkdGg6MS4wOyIvPjx0ZXh0IGZpbGw9IiMwMDAwMDAiIGZvbnQtZmFtaWx5PSJzYW5zLXNlcmlmIiBmb250LXNpemU9IjEzIiBsZW5ndGhBZGp1c3Q9InNwYWNpbmciIHRleHRMZW5ndGg9IjgyIiB4PSIyNjciIHk9IjM3Ny4yODkxIj51cGRhdGVzIGRhdGE8L3RleHQ+PC9nPjwhLS1saW5rIENlbnRyYWxDb250cm9sbGVyIHRvIE5vdGlmaWNhdGlvblNlcnZpY2UtLT48ZyBpZD0ibGlua19DZW50cmFsQ29udHJvbGxlcl9Ob3RpZmljYXRpb25TZXJ2aWNlIj48cGF0aCBjb2RlTGluZT0iMjkiIGQ9Ik0zMjcuOTUsMzMyLjAxIEMzNjUuNDQsMzY0LjA5IDQwNi44MDExLDM5OS40ODkyIDQzNS4zNDExLDQyMy45MDkyICIgZmlsbD0ibm9uZSIgaWQ9IkNlbnRyYWxDb250cm9sbGVyLXRvLU5vdGlmaWNhdGlvblNlcnZpY2UiIHN0eWxlPSJzdHJva2U6IzE4MTgxODtzdHJva2Utd2lkdGg6MS4wOyIvPjxwb2x5Z29uIGZpbGw9IiMxODE4MTgiIHBvaW50cz0iNDM5LjksNDI3LjgxLDQzNS42NjIyLDQxOC45MTk1LDQzNi4xMDA5LDQyNC41NTkzLDQzMC40NjExLDQyNC45OTgxLDQzOS45LDQyNy44MSIgc3R5bGU9InN0cm9rZTojMTgxODE4O3N0cm9rZS13aWR0aDoxLjA7Ii8+PHRleHQgZmlsbD0iIzAwMDAwMCIgZm9udC1mYW1pbHk9InNhbnMtc2VyaWYiIGZvbnQtc2l6ZT0iMTMiIGxlbmd0aEFkanVzdD0ic3BhY2luZyIgdGV4dExlbmd0aD0iMTI3IiB4PSIzNzkiIHk9IjM3Ny4yODkxIj5zZW5kcyBub3RpZmljYXRpb25zPC90ZXh0PjwvZz48IS0tbGluayBOb3RpZmljYXRpb25TZXJ2aWNlIHRvIE1vYmlsZUFwcC0tPjxnIGlkPSJsaW5rX05vdGlmaWNhdGlvblNlcnZpY2VfTW9iaWxlQXBwIj48cGF0aCBjb2RlTGluZT0iMzAiIGQ9Ik00NjcsNDc2LjEzIEM0NjcsNTAyLjU0IDQ2Nyw1MzkuNDggNDY3LDU2NS44OCAiIGZpbGw9Im5vbmUiIGlkPSJOb3RpZmljYXRpb25TZXJ2aWNlLXRvLU1vYmlsZUFwcCIgc3R5bGU9InN0cm9rZTojMTgxODE4O3N0cm9rZS13aWR0aDoxLjA7Ii8+PHBvbHlnb24gZmlsbD0iIzE4MTgxOCIgcG9pbnRzPSI0NjcsNTcxLjg4LDQ3MSw1NjIuODgsNDY3LDU2Ni44OCw0NjMsNTYyLjg4LDQ2Nyw1NzEuODgiIHN0eWxlPSJzdHJva2U6IzE4MTgxODtzdHJva2Utd2lkdGg6MS4wOyIvPjx0ZXh0IGZpbGw9IiMwMDAwMDAiIGZvbnQtZmFtaWx5PSJzYW5zLXNlcmlmIiBmb250LXNpemU9IjEzIiBsZW5ndGhBZGp1c3Q9InNwYWNpbmciIHRleHRMZW5ndGg9IjQ4IiB4PSI0NjgiIHk9IjUyMS4yODkxIj51cGRhdGVzPC90ZXh0PjwvZz48IS0tU1JDPVtYUEIxUWlDbTM4UmxWR2hIcXlSZTItbkc2RGJiWHV2MU8zc2haYlJDN0RqT0pjNkNsRmppZnFjU3BTcnFDSzdWX3lsLTVPbFk0eXk0c3hmNXYtNzVFTmI2QnVzNi1laXpqTGx1dGEwZUV0NmFzSlh1Nnh4N1RZb1hhMWFFSGhCbDcwclNRbFBCWHlmZXh1bklqRTlJS00xR1BVWENuN2dtcFdYWTdnT3lleVV4LW9OMGY5bEFqMnRnWGRfdEVqa1dmd1d3OExEOS1NZ3lfOTBZOVA3Qi16QTN0YjVUd0ZQUlpjNk1JcW45RkR2WTlHamJrY1I0SVhSdlBNX1J2NUhEeFk5NXFVbldKYjhIRjVjeGprRjgxRUhnYTh4YnVjNnRzblVzLTBXbk5PUUdGb1JMTm9HQXZ5V2NYUlprU2FNcjIyZThYcE5fRXdtR3AzSEx2X3oxeVlaSHFNTkFQMXd5d055MF0tLT48L2c+PC9zdmc+;" parent="1" vertex="1">
            <mxGeometry x="130" y="-70" width="597" height="667" as="geometry" />
          </mxCell>
        </UserObject>
        <mxCell id="p0RDuZN4yrUeEtZU9wO6-4" value="" style="group" parent="1" vertex="1" connectable="0">
          <mxGeometry x="814" y="-77" width="576" height="709" as="geometry" />
        </mxCell>
        <mxCell id="p0RDuZN4yrUeEtZU9wO6-2" value="" style="shape=folder;fontStyle=1;spacingTop=10;tabWidth=136;tabHeight=26;tabPosition=left;html=1;whiteSpace=wrap;" parent="p0RDuZN4yrUeEtZU9wO6-4" vertex="1">
          <mxGeometry x="10.33" width="565.67" height="681" as="geometry" />
        </mxCell>
        <mxCell id="p0RDuZN4yrUeEtZU9wO6-3" value="Smart Irritation System" style="text;html=1;align=center;verticalAlign=middle;resizable=0;points=[];autosize=1;strokeColor=none;fillColor=none;" parent="p0RDuZN4yrUeEtZU9wO6-4" vertex="1">
          <mxGeometry x="7.212880143112702" width="140" height="26" as="geometry" />
        </mxCell>
        <mxCell id="p0RDuZN4yrUeEtZU9wO6-7" value="" style="group" parent="p0RDuZN4yrUeEtZU9wO6-4" vertex="1" connectable="0">
          <mxGeometry x="178.26" y="51" width="198.87" height="105" as="geometry" />
        </mxCell>
        <mxCell id="p0RDuZN4yrUeEtZU9wO6-5" value="" style="shape=folder;fontStyle=1;spacingTop=10;tabWidth=107;tabHeight=25;tabPosition=left;html=1;whiteSpace=wrap;" parent="p0RDuZN4yrUeEtZU9wO6-7" vertex="1">
          <mxGeometry width="198.87" height="105" as="geometry" />
        </mxCell>
        <mxCell id="p0RDuZN4yrUeEtZU9wO6-6" value="Sensore Package" style="text;html=1;align=center;verticalAlign=middle;resizable=0;points=[];autosize=1;strokeColor=none;fillColor=none;" parent="p0RDuZN4yrUeEtZU9wO6-7" vertex="1">
          <mxGeometry x="-4.121658031088083" width="113" height="26" as="geometry" />
        </mxCell>
        <mxCell id="p0RDuZN4yrUeEtZU9wO6-8" value="&lt;p style=&quot;margin:0px;margin-top:4px;text-align:center;&quot;&gt;&lt;b&gt;MoistureSenso&lt;/b&gt;&lt;/p&gt;&lt;hr size=&quot;1&quot; style=&quot;border-style:solid;&quot;&gt;&lt;p style=&quot;margin:0px;margin-left:4px;&quot;&gt;&lt;br&gt;&lt;/p&gt;" style="verticalAlign=top;align=left;overflow=fill;html=1;whiteSpace=wrap;" parent="p0RDuZN4yrUeEtZU9wO6-7" vertex="1">
          <mxGeometry x="17.001839378238344" y="38.87096774193549" width="164.86632124352332" height="44.03225806451613" as="geometry" />
        </mxCell>
        <mxCell id="p0RDuZN4yrUeEtZU9wO6-9" value="" style="group" parent="p0RDuZN4yrUeEtZU9wO6-4" vertex="1" connectable="0">
          <mxGeometry x="178.26118067978535" y="201" width="232.87298747763867" height="196" as="geometry" />
        </mxCell>
        <mxCell id="p0RDuZN4yrUeEtZU9wO6-10" value="" style="shape=folder;fontStyle=1;spacingTop=10;tabWidth=112;tabHeight=25;tabPosition=left;html=1;whiteSpace=wrap;" parent="p0RDuZN4yrUeEtZU9wO6-9" vertex="1">
          <mxGeometry width="232.87" height="183" as="geometry" />
        </mxCell>
        <mxCell id="p0RDuZN4yrUeEtZU9wO6-11" value="Controller Package" style="text;html=1;align=center;verticalAlign=middle;resizable=0;points=[];autosize=1;strokeColor=none;fillColor=none;" parent="p0RDuZN4yrUeEtZU9wO6-9" vertex="1">
          <mxGeometry x="-4.650198819134836" width="120" height="26" as="geometry" />
        </mxCell>
        <mxCell id="p0RDuZN4yrUeEtZU9wO6-30" value="&lt;p style=&quot;margin:0px;margin-top:4px;text-align:center;&quot;&gt;&lt;b&gt;CentralController&lt;/b&gt;&lt;/p&gt;&lt;hr size=&quot;1&quot; style=&quot;border-style:solid;&quot;&gt;&lt;p style=&quot;margin: 0px 0px 0px 4px;&quot;&gt;+processSensorData()&lt;/p&gt;&lt;p style=&quot;margin: 0px 0px 0px 4px;&quot;&gt;+sendCommands()&lt;/p&gt;&lt;p style=&quot;margin: 0px 0px 0px 4px;&quot;&gt;+updateDatabase()&lt;/p&gt;&lt;p style=&quot;margin: 0px 0px 0px 4px;&quot;&gt;+sendNotifications()&lt;/p&gt;" style="verticalAlign=top;align=left;overflow=fill;html=1;whiteSpace=wrap;" parent="p0RDuZN4yrUeEtZU9wO6-9" vertex="1">
          <mxGeometry x="19.907549194991056" y="58" width="193.05788908765655" height="100" as="geometry" />
        </mxCell>
        <mxCell id="p0RDuZN4yrUeEtZU9wO6-13" value="" style="group" parent="p0RDuZN4yrUeEtZU9wO6-4" vertex="1" connectable="0">
          <mxGeometry x="35.03398926654741" y="425" width="160.74418604651163" height="101" as="geometry" />
        </mxCell>
        <mxCell id="p0RDuZN4yrUeEtZU9wO6-14" value="" style="shape=folder;fontStyle=1;spacingTop=10;tabWidth=107;tabHeight=25;tabPosition=left;html=1;whiteSpace=wrap;" parent="p0RDuZN4yrUeEtZU9wO6-13" vertex="1">
          <mxGeometry width="160.74418604651163" height="100.99999999999999" as="geometry" />
        </mxCell>
        <mxCell id="p0RDuZN4yrUeEtZU9wO6-15" value="Valve Package" style="text;html=1;align=center;verticalAlign=middle;resizable=0;points=[];autosize=1;strokeColor=none;fillColor=none;" parent="p0RDuZN4yrUeEtZU9wO6-13" vertex="1">
          <mxGeometry x="5.152057245080501" width="97" height="26" as="geometry" />
        </mxCell>
        <mxCell id="p0RDuZN4yrUeEtZU9wO6-16" value="&lt;p style=&quot;margin:0px;margin-top:4px;text-align:center;&quot;&gt;&lt;b&gt;WaterValve&lt;/b&gt;&lt;br&gt;&lt;/p&gt;&lt;hr size=&quot;1&quot; style=&quot;border-style:solid;&quot;&gt;&lt;p style=&quot;margin:0px;margin-left:4px;&quot;&gt;&lt;br&gt;&lt;/p&gt;" style="verticalAlign=top;align=left;overflow=fill;html=1;whiteSpace=wrap;" parent="p0RDuZN4yrUeEtZU9wO6-13" vertex="1">
          <mxGeometry x="13.742378599831305" y="47.58064516129032" width="133.25942884684903" height="42.35483870967741" as="geometry" />
        </mxCell>
        <mxCell id="p0RDuZN4yrUeEtZU9wO6-17" value="" style="group" parent="p0RDuZN4yrUeEtZU9wO6-4" vertex="1" connectable="0">
          <mxGeometry x="212.79026833631485" y="425" width="160.74418604651163" height="101" as="geometry" />
        </mxCell>
        <mxCell id="p0RDuZN4yrUeEtZU9wO6-18" value="" style="shape=folder;fontStyle=1;spacingTop=10;tabWidth=120;tabHeight=25;tabPosition=left;html=1;whiteSpace=wrap;" parent="p0RDuZN4yrUeEtZU9wO6-17" vertex="1">
          <mxGeometry width="160.74418604651163" height="100.99999999999999" as="geometry" />
        </mxCell>
        <mxCell id="p0RDuZN4yrUeEtZU9wO6-19" value="Database Package" style="text;html=1;align=center;verticalAlign=middle;resizable=0;points=[];autosize=1;strokeColor=none;fillColor=none;" parent="p0RDuZN4yrUeEtZU9wO6-17" vertex="1">
          <mxGeometry width="119" height="26" as="geometry" />
        </mxCell>
        <mxCell id="p0RDuZN4yrUeEtZU9wO6-20" value="&lt;p style=&quot;margin:0px;margin-top:4px;text-align:center;&quot;&gt;&lt;b&gt;CloudDatabase&lt;/b&gt;&lt;br&gt;&lt;/p&gt;&lt;hr size=&quot;1&quot; style=&quot;border-style:solid;&quot;&gt;&lt;p style=&quot;margin:0px;margin-left:4px;&quot;&gt;&lt;br&gt;&lt;/p&gt;" style="verticalAlign=top;align=left;overflow=fill;html=1;whiteSpace=wrap;" parent="p0RDuZN4yrUeEtZU9wO6-17" vertex="1">
          <mxGeometry x="13.742378599831305" y="48.58064516129032" width="133.25942884684903" height="42.35483870967741" as="geometry" />
        </mxCell>
        <mxCell id="p0RDuZN4yrUeEtZU9wO6-21" value="" style="group" parent="p0RDuZN4yrUeEtZU9wO6-4" vertex="1" connectable="0">
          <mxGeometry x="388.4651162790698" y="425" width="160.74418604651163" height="101" as="geometry" />
        </mxCell>
        <mxCell id="p0RDuZN4yrUeEtZU9wO6-22" value="" style="shape=folder;fontStyle=1;spacingTop=10;tabWidth=125;tabHeight=25;tabPosition=left;html=1;whiteSpace=wrap;" parent="p0RDuZN4yrUeEtZU9wO6-21" vertex="1">
          <mxGeometry width="160.74418604651163" height="100.99999999999999" as="geometry" />
        </mxCell>
        <mxCell id="p0RDuZN4yrUeEtZU9wO6-23" value="Notification Package" style="text;html=1;align=center;verticalAlign=middle;resizable=0;points=[];autosize=1;strokeColor=none;fillColor=none;" parent="p0RDuZN4yrUeEtZU9wO6-21" vertex="1">
          <mxGeometry x="-2.0608228980322005" width="127" height="26" as="geometry" />
        </mxCell>
        <mxCell id="p0RDuZN4yrUeEtZU9wO6-24" value="&lt;p style=&quot;margin:0px;margin-top:4px;text-align:center;&quot;&gt;&lt;b&gt;NotificationService&lt;/b&gt;&lt;br&gt;&lt;/p&gt;&lt;hr size=&quot;1&quot; style=&quot;border-style:solid;&quot;&gt;&lt;p style=&quot;margin:0px;margin-left:4px;&quot;&gt;&lt;br&gt;&lt;/p&gt;" style="verticalAlign=top;align=left;overflow=fill;html=1;whiteSpace=wrap;" parent="p0RDuZN4yrUeEtZU9wO6-21" vertex="1">
          <mxGeometry x="13.742378599831305" y="46.58064516129032" width="133.25942884684903" height="42.35483870967741" as="geometry" />
        </mxCell>
        <mxCell id="p0RDuZN4yrUeEtZU9wO6-26" value="" style="group" parent="p0RDuZN4yrUeEtZU9wO6-4" vertex="1" connectable="0">
          <mxGeometry x="388.4651162790698" y="561" width="160.74418604651163" height="110" as="geometry" />
        </mxCell>
        <mxCell id="p0RDuZN4yrUeEtZU9wO6-27" value="" style="shape=folder;fontStyle=1;spacingTop=10;tabWidth=118;tabHeight=26;tabPosition=left;html=1;whiteSpace=wrap;" parent="p0RDuZN4yrUeEtZU9wO6-26" vertex="1">
          <mxGeometry width="160.74418604651163" height="109.99999999999999" as="geometry" />
        </mxCell>
        <mxCell id="p0RDuZN4yrUeEtZU9wO6-28" value="Mobile App Package" style="text;html=1;align=center;verticalAlign=middle;resizable=0;points=[];autosize=1;strokeColor=none;fillColor=none;" parent="p0RDuZN4yrUeEtZU9wO6-26" vertex="1">
          <mxGeometry x="-5.152057245080501" width="127" height="26" as="geometry" />
        </mxCell>
        <mxCell id="p0RDuZN4yrUeEtZU9wO6-29" value="&lt;p style=&quot;margin:0px;margin-top:4px;text-align:center;&quot;&gt;&lt;b&gt;MobileApp&lt;/b&gt;&lt;br&gt;&lt;/p&gt;&lt;hr size=&quot;1&quot; style=&quot;border-style:solid;&quot;&gt;&lt;p style=&quot;margin:0px;margin-left:4px;&quot;&gt;&lt;br&gt;&lt;/p&gt;" style="verticalAlign=top;align=left;overflow=fill;html=1;whiteSpace=wrap;" parent="p0RDuZN4yrUeEtZU9wO6-26" vertex="1">
          <mxGeometry x="13.742378599831305" y="48.00387096774193" width="133.25942884684903" height="46.129032258064505" as="geometry" />
        </mxCell>
        <mxCell id="p0RDuZN4yrUeEtZU9wO6-31" style="edgeStyle=orthogonalEdgeStyle;rounded=0;orthogonalLoop=1;jettySize=auto;html=1;entryX=0.648;entryY=0.018;entryDx=0;entryDy=0;entryPerimeter=0;exitX=0.776;exitY=1.002;exitDx=0;exitDy=0;exitPerimeter=0;" parent="p0RDuZN4yrUeEtZU9wO6-4" source="p0RDuZN4yrUeEtZU9wO6-8" target="p0RDuZN4yrUeEtZU9wO6-30" edge="1">
          <mxGeometry relative="1" as="geometry">
            <mxPoint x="323" y="142" as="sourcePoint" />
            <Array as="points" />
          </mxGeometry>
        </mxCell>
        <mxCell id="p0RDuZN4yrUeEtZU9wO6-32" style="edgeStyle=orthogonalEdgeStyle;rounded=0;orthogonalLoop=1;jettySize=auto;html=1;" parent="p0RDuZN4yrUeEtZU9wO6-4" source="p0RDuZN4yrUeEtZU9wO6-24" target="p0RDuZN4yrUeEtZU9wO6-29" edge="1">
          <mxGeometry relative="1" as="geometry">
            <Array as="points">
              <mxPoint x="521.3881932021467" y="551" />
              <mxPoint x="521.3881932021467" y="551" />
            </Array>
          </mxGeometry>
        </mxCell>
        <mxCell id="p0RDuZN4yrUeEtZU9wO6-37" style="edgeStyle=orthogonalEdgeStyle;rounded=0;orthogonalLoop=1;jettySize=auto;html=1;entryX=0.941;entryY=0.032;entryDx=0;entryDy=0;entryPerimeter=0;" parent="p0RDuZN4yrUeEtZU9wO6-4" source="p0RDuZN4yrUeEtZU9wO6-30" target="p0RDuZN4yrUeEtZU9wO6-24" edge="1">
          <mxGeometry relative="1" as="geometry" />
        </mxCell>
        <mxCell id="p0RDuZN4yrUeEtZU9wO6-38" value="sends notifications" style="text;html=1;align=center;verticalAlign=middle;resizable=0;points=[];autosize=1;strokeColor=none;fillColor=none;" parent="p0RDuZN4yrUeEtZU9wO6-4" vertex="1">
          <mxGeometry x="420" y="286" width="117" height="26" as="geometry" />
        </mxCell>
        <mxCell id="p0RDuZN4yrUeEtZU9wO6-39" style="edgeStyle=orthogonalEdgeStyle;rounded=0;orthogonalLoop=1;jettySize=auto;html=1;entryX=0.912;entryY=0.059;entryDx=0;entryDy=0;entryPerimeter=0;exitX=0.776;exitY=1.005;exitDx=0;exitDy=0;exitPerimeter=0;" parent="p0RDuZN4yrUeEtZU9wO6-4" source="p0RDuZN4yrUeEtZU9wO6-30" target="p0RDuZN4yrUeEtZU9wO6-20" edge="1">
          <mxGeometry relative="1" as="geometry">
            <Array as="points" />
          </mxGeometry>
        </mxCell>
        <mxCell id="p0RDuZN4yrUeEtZU9wO6-40" value="updates data" style="text;html=1;align=center;verticalAlign=middle;resizable=0;points=[];autosize=1;strokeColor=none;fillColor=none;" parent="p0RDuZN4yrUeEtZU9wO6-4" vertex="1">
          <mxGeometry x="267" y="390" width="87" height="26" as="geometry" />
        </mxCell>
        <mxCell id="p0RDuZN4yrUeEtZU9wO6-41" style="edgeStyle=orthogonalEdgeStyle;rounded=0;orthogonalLoop=1;jettySize=auto;html=1;entryX=0.818;entryY=-0.001;entryDx=0;entryDy=0;entryPerimeter=0;" parent="p0RDuZN4yrUeEtZU9wO6-4" source="p0RDuZN4yrUeEtZU9wO6-30" target="p0RDuZN4yrUeEtZU9wO6-16" edge="1">
          <mxGeometry relative="1" as="geometry" />
        </mxCell>
        <mxCell id="p0RDuZN4yrUeEtZU9wO6-42" value="sends commands" style="text;html=1;align=center;verticalAlign=middle;resizable=0;points=[];autosize=1;strokeColor=none;fillColor=none;" parent="p0RDuZN4yrUeEtZU9wO6-4" vertex="1">
          <mxGeometry x="50" y="345" width="112" height="26" as="geometry" />
        </mxCell>
        <mxCell id="p0RDuZN4yrUeEtZU9wO6-35" value="sends data" style="text;html=1;align=center;verticalAlign=middle;whiteSpace=wrap;rounded=0;" parent="1" vertex="1">
          <mxGeometry x="1132" y="107" width="77" height="30" as="geometry" />
        </mxCell>
        <mxCell id="p0RDuZN4yrUeEtZU9wO6-34" value="&lt;font style=&quot;font-size: 11px;&quot;&gt;Updates&lt;/font&gt;" style="text;html=1;align=center;verticalAlign=middle;resizable=0;points=[];autosize=1;strokeColor=none;fillColor=none;" parent="1" vertex="1">
          <mxGeometry x="1327.1449016100178" y="464" width="59" height="26" as="geometry" />
        </mxCell>
        <UserObject label="" plantUmlData="{&#xa;  &quot;data&quot;: &quot;@startuml\nactor User\nparticipant MoistureSensor\nparticipant CentralController\nparticipant WaterValve\n\nUser -&gt; MoistureSensor: measureMoisture()\nMoistureSensor -&gt; CentralController: sendMoistureData()\nCentralController -&gt; CentralController: processSensorData()\nalt if irrigation needed\n    CentralController -&gt; WaterValve: sendCommands(openValve)\n    WaterValve -&gt; WaterValve: openValve()\nend\n@enduml\n&quot;,&#xa;  &quot;format&quot;: &quot;svg&quot;&#xa;}" id="mwouuTTg1p4LpOOELwbf-1">
          <mxCell style="shape=image;noLabel=1;verticalAlign=top;aspect=fixed;imageAspect=0;image=data:image/svg+xml,PD94bWwgdmVyc2lvbj0iMS4wIiBlbmNvZGluZz0idXMtYXNjaWkiIHN0YW5kYWxvbmU9Im5vIj8+PHN2ZyB4bWxucz0iaHR0cDovL3d3dy53My5vcmcvMjAwMC9zdmciIHhtbG5zOnhsaW5rPSJodHRwOi8vd3d3LnczLm9yZy8xOTk5L3hsaW5rIiBjb250ZW50U3R5bGVUeXBlPSJ0ZXh0L2NzcyIgaGVpZ2h0PSIzNzRweCIgcHJlc2VydmVBc3BlY3RSYXRpbz0ibm9uZSIgc3R5bGU9IndpZHRoOjU4NHB4O2hlaWdodDozNzRweDtiYWNrZ3JvdW5kOiNGRkZGRkY7IiB2ZXJzaW9uPSIxLjEiIHZpZXdCb3g9IjAgMCA1ODQgMzc0IiB3aWR0aD0iNTg0cHgiIHpvb21BbmRQYW49Im1hZ25pZnkiPjxkZWZzLz48Zz48cmVjdCBmaWxsPSJub25lIiBoZWlnaHQ9Ijg0Ljc0MjIiIHN0eWxlPSJzdHJva2U6IzAwMDAwMDtzdHJva2Utd2lkdGg6MS41OyIgd2lkdGg9IjM0OS41IiB4PSIyMjguNSIgeT0iMTkzLjcyNjYiLz48bGluZSBzdHlsZT0ic3Ryb2tlOiMxODE4MTg7c3Ryb2tlLXdpZHRoOjAuNTtzdHJva2UtZGFzaGFycmF5OjUuMCw1LjA7IiB4MT0iMjIiIHgyPSIyMiIgeTE9Ijc5Ljk4NDQiIHkyPSIyOTUuNDY4OCIvPjxsaW5lIHN0eWxlPSJzdHJva2U6IzE4MTgxODtzdHJva2Utd2lkdGg6MC41O3N0cm9rZS1kYXNoYXJyYXk6NS4wLDUuMDsiIHgxPSIxNjAiIHgyPSIxNjAiIHkxPSI3OS45ODQ0IiB5Mj0iMjk1LjQ2ODgiLz48bGluZSBzdHlsZT0ic3Ryb2tlOiMxODE4MTg7c3Ryb2tlLXdpZHRoOjAuNTtzdHJva2UtZGFzaGFycmF5OjUuMCw1LjA7IiB4MT0iMzA0LjUiIHgyPSIzMDQuNSIgeTE9Ijc5Ljk4NDQiIHkyPSIyOTUuNDY4OCIvPjxsaW5lIHN0eWxlPSJzdHJva2U6IzE4MTgxODtzdHJva2Utd2lkdGg6MC41O3N0cm9rZS1kYXNoYXJyYXk6NS4wLDUuMDsiIHgxPSI0ODUiIHgyPSI0ODUiIHkxPSI3OS45ODQ0IiB5Mj0iMjk1LjQ2ODgiLz48dGV4dCBmaWxsPSIjMDAwMDAwIiBmb250LWZhbWlseT0ic2Fucy1zZXJpZiIgZm9udC1zaXplPSIxNCIgbGVuZ3RoQWRqdXN0PSJzcGFjaW5nIiB0ZXh0TGVuZ3RoPSIyOCIgeD0iNSIgeT0iNzguMjM0NCI+VXNlcjwvdGV4dD48ZWxsaXBzZSBjeD0iMjIiIGN5PSIxMy41IiBmaWxsPSIjRTJFMkYwIiByeD0iOCIgcnk9IjgiIHN0eWxlPSJzdHJva2U6IzE4MTgxODtzdHJva2Utd2lkdGg6MC41OyIvPjxwYXRoIGQ9Ik0yMiwyMS41IEwyMiw0OC41IE05LDI5LjUgTDM1LDI5LjUgTTIyLDQ4LjUgTDksNjMuNSBNMjIsNDguNSBMMzUsNjMuNSAiIGZpbGw9Im5vbmUiIHN0eWxlPSJzdHJva2U6IzE4MTgxODtzdHJva2Utd2lkdGg6MC41OyIvPjx0ZXh0IGZpbGw9IiMwMDAwMDAiIGZvbnQtZmFtaWx5PSJzYW5zLXNlcmlmIiBmb250LXNpemU9IjE0IiBsZW5ndGhBZGp1c3Q9InNwYWNpbmciIHRleHRMZW5ndGg9IjI4IiB4PSI1IiB5PSIzMDcuNzAzMSI+VXNlcjwvdGV4dD48ZWxsaXBzZSBjeD0iMjIiIGN5PSIzMTcuOTUzMSIgZmlsbD0iI0UyRTJGMCIgcng9IjgiIHJ5PSI4IiBzdHlsZT0ic3Ryb2tlOiMxODE4MTg7c3Ryb2tlLXdpZHRoOjAuNTsiLz48cGF0aCBkPSJNMjIsMzI1Ljk1MzEgTDIyLDM1Mi45NTMxIE05LDMzMy45NTMxIEwzNSwzMzMuOTUzMSBNMjIsMzUyLjk1MzEgTDksMzY3Ljk1MzEgTTIyLDM1Mi45NTMxIEwzNSwzNjcuOTUzMSAiIGZpbGw9Im5vbmUiIHN0eWxlPSJzdHJva2U6IzE4MTgxODtzdHJva2Utd2lkdGg6MC41OyIvPjxyZWN0IGZpbGw9IiNFMkUyRjAiIGhlaWdodD0iMjguOTg0NCIgcng9IjIuNSIgcnk9IjIuNSIgc3R5bGU9InN0cm9rZTojMTgxODE4O3N0cm9rZS13aWR0aDowLjU7IiB3aWR0aD0iMTEyIiB4PSIxMDQiIHk9IjUwIi8+PHRleHQgZmlsbD0iIzAwMDAwMCIgZm9udC1mYW1pbHk9InNhbnMtc2VyaWYiIGZvbnQtc2l6ZT0iMTQiIGxlbmd0aEFkanVzdD0ic3BhY2luZyIgdGV4dExlbmd0aD0iOTgiIHg9IjExMSIgeT0iNzAuMjM0NCI+TW9pc3R1cmVTZW5zb3I8L3RleHQ+PHJlY3QgZmlsbD0iI0UyRTJGMCIgaGVpZ2h0PSIyOC45ODQ0IiByeD0iMi41IiByeT0iMi41IiBzdHlsZT0ic3Ryb2tlOiMxODE4MTg7c3Ryb2tlLXdpZHRoOjAuNTsiIHdpZHRoPSIxMTIiIHg9IjEwNCIgeT0iMjk0LjQ2ODgiLz48dGV4dCBmaWxsPSIjMDAwMDAwIiBmb250LWZhbWlseT0ic2Fucy1zZXJpZiIgZm9udC1zaXplPSIxNCIgbGVuZ3RoQWRqdXN0PSJzcGFjaW5nIiB0ZXh0TGVuZ3RoPSI5OCIgeD0iMTExIiB5PSIzMTQuNzAzMSI+TW9pc3R1cmVTZW5zb3I8L3RleHQ+PHJlY3QgZmlsbD0iI0UyRTJGMCIgaGVpZ2h0PSIyOC45ODQ0IiByeD0iMi41IiByeT0iMi41IiBzdHlsZT0ic3Ryb2tlOiMxODE4MTg7c3Ryb2tlLXdpZHRoOjAuNTsiIHdpZHRoPSIxMzMiIHg9IjIzOC41IiB5PSI1MCIvPjx0ZXh0IGZpbGw9IiMwMDAwMDAiIGZvbnQtZmFtaWx5PSJzYW5zLXNlcmlmIiBmb250LXNpemU9IjE0IiBsZW5ndGhBZGp1c3Q9InNwYWNpbmciIHRleHRMZW5ndGg9IjExOSIgeD0iMjQ1LjUiIHk9IjcwLjIzNDQiPkNlbnRyYWxDb250cm9sbGVyPC90ZXh0PjxyZWN0IGZpbGw9IiNFMkUyRjAiIGhlaWdodD0iMjguOTg0NCIgcng9IjIuNSIgcnk9IjIuNSIgc3R5bGU9InN0cm9rZTojMTgxODE4O3N0cm9rZS13aWR0aDowLjU7IiB3aWR0aD0iMTMzIiB4PSIyMzguNSIgeT0iMjk0LjQ2ODgiLz48dGV4dCBmaWxsPSIjMDAwMDAwIiBmb250LWZhbWlseT0ic2Fucy1zZXJpZiIgZm9udC1zaXplPSIxNCIgbGVuZ3RoQWRqdXN0PSJzcGFjaW5nIiB0ZXh0TGVuZ3RoPSIxMTkiIHg9IjI0NS41IiB5PSIzMTQuNzAzMSI+Q2VudHJhbENvbnRyb2xsZXI8L3RleHQ+PHJlY3QgZmlsbD0iI0UyRTJGMCIgaGVpZ2h0PSIyOC45ODQ0IiByeD0iMi41IiByeT0iMi41IiBzdHlsZT0ic3Ryb2tlOiMxODE4MTg7c3Ryb2tlLXdpZHRoOjAuNTsiIHdpZHRoPSI4NCIgeD0iNDQzIiB5PSI1MCIvPjx0ZXh0IGZpbGw9IiMwMDAwMDAiIGZvbnQtZmFtaWx5PSJzYW5zLXNlcmlmIiBmb250LXNpemU9IjE0IiBsZW5ndGhBZGp1c3Q9InNwYWNpbmciIHRleHRMZW5ndGg9IjcwIiB4PSI0NTAiIHk9IjcwLjIzNDQiPldhdGVyVmFsdmU8L3RleHQ+PHJlY3QgZmlsbD0iI0UyRTJGMCIgaGVpZ2h0PSIyOC45ODQ0IiByeD0iMi41IiByeT0iMi41IiBzdHlsZT0ic3Ryb2tlOiMxODE4MTg7c3Ryb2tlLXdpZHRoOjAuNTsiIHdpZHRoPSI4NCIgeD0iNDQzIiB5PSIyOTQuNDY4OCIvPjx0ZXh0IGZpbGw9IiMwMDAwMDAiIGZvbnQtZmFtaWx5PSJzYW5zLXNlcmlmIiBmb250LXNpemU9IjE0IiBsZW5ndGhBZGp1c3Q9InNwYWNpbmciIHRleHRMZW5ndGg9IjcwIiB4PSI0NTAiIHk9IjMxNC43MDMxIj5XYXRlclZhbHZlPC90ZXh0Pjxwb2x5Z29uIGZpbGw9IiMxODE4MTgiIHBvaW50cz0iMTQ4LDEwNS44OTg0LDE1OCwxMDkuODk4NCwxNDgsMTEzLjg5ODQsMTUyLDEwOS44OTg0IiBzdHlsZT0ic3Ryb2tlOiMxODE4MTg7c3Ryb2tlLXdpZHRoOjEuMDsiLz48bGluZSBzdHlsZT0ic3Ryb2tlOiMxODE4MTg7c3Ryb2tlLXdpZHRoOjEuMDsiIHgxPSIyMiIgeDI9IjE1NCIgeTE9IjEwOS44OTg0IiB5Mj0iMTA5Ljg5ODQiLz48dGV4dCBmaWxsPSIjMDAwMDAwIiBmb250LWZhbWlseT0ic2Fucy1zZXJpZiIgZm9udC1zaXplPSIxMyIgbGVuZ3RoQWRqdXN0PSJzcGFjaW5nIiB0ZXh0TGVuZ3RoPSIxMTQiIHg9IjI5IiB5PSIxMDYuMjczNCI+bWVhc3VyZU1vaXN0dXJlKCk8L3RleHQ+PHBvbHlnb24gZmlsbD0iIzE4MTgxOCIgcG9pbnRzPSIyOTMsMTMzLjgxMjUsMzAzLDEzNy44MTI1LDI5MywxNDEuODEyNSwyOTcsMTM3LjgxMjUiIHN0eWxlPSJzdHJva2U6IzE4MTgxODtzdHJva2Utd2lkdGg6MS4wOyIvPjxsaW5lIHN0eWxlPSJzdHJva2U6IzE4MTgxODtzdHJva2Utd2lkdGg6MS4wOyIgeDE9IjE2MCIgeDI9IjI5OSIgeTE9IjEzNy44MTI1IiB5Mj0iMTM3LjgxMjUiLz48dGV4dCBmaWxsPSIjMDAwMDAwIiBmb250LWZhbWlseT0ic2Fucy1zZXJpZiIgZm9udC1zaXplPSIxMyIgbGVuZ3RoQWRqdXN0PSJzcGFjaW5nIiB0ZXh0TGVuZ3RoPSIxMjEiIHg9IjE2NyIgeT0iMTM0LjE4NzUiPnNlbmRNb2lzdHVyZURhdGEoKTwvdGV4dD48bGluZSBzdHlsZT0ic3Ryb2tlOiMxODE4MTg7c3Ryb2tlLXdpZHRoOjEuMDsiIHgxPSIzMDUiIHgyPSIzNDciIHkxPSIxNjUuNzI2NiIgeTI9IjE2NS43MjY2Ii8+PGxpbmUgc3R5bGU9InN0cm9rZTojMTgxODE4O3N0cm9rZS13aWR0aDoxLjA7IiB4MT0iMzQ3IiB4Mj0iMzQ3IiB5MT0iMTY1LjcyNjYiIHkyPSIxNzguNzI2NiIvPjxsaW5lIHN0eWxlPSJzdHJva2U6IzE4MTgxODtzdHJva2Utd2lkdGg6MS4wOyIgeDE9IjMwNiIgeDI9IjM0NyIgeTE9IjE3OC43MjY2IiB5Mj0iMTc4LjcyNjYiLz48cG9seWdvbiBmaWxsPSIjMTgxODE4IiBwb2ludHM9IjMxNiwxNzQuNzI2NiwzMDYsMTc4LjcyNjYsMzE2LDE4Mi43MjY2LDMxMiwxNzguNzI2NiIgc3R5bGU9InN0cm9rZTojMTgxODE4O3N0cm9rZS13aWR0aDoxLjA7Ii8+PHRleHQgZmlsbD0iIzAwMDAwMCIgZm9udC1mYW1pbHk9InNhbnMtc2VyaWYiIGZvbnQtc2l6ZT0iMTMiIGxlbmd0aEFkanVzdD0ic3BhY2luZyIgdGV4dExlbmd0aD0iMTMwIiB4PSIzMTIiIHk9IjE2Mi4xMDE2Ij5wcm9jZXNzU2Vuc29yRGF0YSgpPC90ZXh0PjxwYXRoIGQ9Ik0yMjguNSwxOTMuNzI2NiBMMjkyLjUsMTkzLjcyNjYgTDI5Mi41LDE5OS42NDA2IEwyODIuNSwyMDkuNjQwNiBMMjI4LjUsMjA5LjY0MDYgTDIyOC41LDE5My43MjY2ICIgZmlsbD0iI0VFRUVFRSIgc3R5bGU9InN0cm9rZTojMDAwMDAwO3N0cm9rZS13aWR0aDoxLjU7Ii8+PHJlY3QgZmlsbD0ibm9uZSIgaGVpZ2h0PSI4NC43NDIyIiBzdHlsZT0ic3Ryb2tlOiMwMDAwMDA7c3Ryb2tlLXdpZHRoOjEuNTsiIHdpZHRoPSIzNDkuNSIgeD0iMjI4LjUiIHk9IjE5My43MjY2Ii8+PHRleHQgZmlsbD0iIzAwMDAwMCIgZm9udC1mYW1pbHk9InNhbnMtc2VyaWYiIGZvbnQtc2l6ZT0iMTMiIGZvbnQtd2VpZ2h0PSJib2xkIiBsZW5ndGhBZGp1c3Q9InNwYWNpbmciIHRleHRMZW5ndGg9IjE5IiB4PSIyNDMuNSIgeT0iMjA3LjAxNTYiPmFsdDwvdGV4dD48dGV4dCBmaWxsPSIjMDAwMDAwIiBmb250LWZhbWlseT0ic2Fucy1zZXJpZiIgZm9udC1zaXplPSIxMSIgZm9udC13ZWlnaHQ9ImJvbGQiIGxlbmd0aEFkanVzdD0ic3BhY2luZyIgdGV4dExlbmd0aD0iMTMyIiB4PSIzMDcuNSIgeT0iMjA2LjEyNSI+W2lmIGlycmlnYXRpb24gbmVlZGVkXTwvdGV4dD48cG9seWdvbiBmaWxsPSIjMTgxODE4IiBwb2ludHM9IjQ3MywyMjUuNTU0Nyw0ODMsMjI5LjU1NDcsNDczLDIzMy41NTQ3LDQ3NywyMjkuNTU0NyIgc3R5bGU9InN0cm9rZTojMTgxODE4O3N0cm9rZS13aWR0aDoxLjA7Ii8+PGxpbmUgc3R5bGU9InN0cm9rZTojMTgxODE4O3N0cm9rZS13aWR0aDoxLjA7IiB4MT0iMzA1IiB4Mj0iNDc5IiB5MT0iMjI5LjU1NDciIHkyPSIyMjkuNTU0NyIvPjx0ZXh0IGZpbGw9IiMwMDAwMDAiIGZvbnQtZmFtaWx5PSJzYW5zLXNlcmlmIiBmb250LXNpemU9IjEzIiBsZW5ndGhBZGp1c3Q9InNwYWNpbmciIHRleHRMZW5ndGg9IjE1NiIgeD0iMzEyIiB5PSIyMjUuOTI5NyI+c2VuZENvbW1hbmRzKG9wZW5WYWx2ZSk8L3RleHQ+PGxpbmUgc3R5bGU9InN0cm9rZTojMTgxODE4O3N0cm9rZS13aWR0aDoxLjA7IiB4MT0iNDg1IiB4Mj0iNTI3IiB5MT0iMjU3LjQ2ODgiIHkyPSIyNTcuNDY4OCIvPjxsaW5lIHN0eWxlPSJzdHJva2U6IzE4MTgxODtzdHJva2Utd2lkdGg6MS4wOyIgeDE9IjUyNyIgeDI9IjUyNyIgeTE9IjI1Ny40Njg4IiB5Mj0iMjcwLjQ2ODgiLz48bGluZSBzdHlsZT0ic3Ryb2tlOiMxODE4MTg7c3Ryb2tlLXdpZHRoOjEuMDsiIHgxPSI0ODYiIHgyPSI1MjciIHkxPSIyNzAuNDY4OCIgeTI9IjI3MC40Njg4Ii8+PHBvbHlnb24gZmlsbD0iIzE4MTgxOCIgcG9pbnRzPSI0OTYsMjY2LjQ2ODgsNDg2LDI3MC40Njg4LDQ5NiwyNzQuNDY4OCw0OTIsMjcwLjQ2ODgiIHN0eWxlPSJzdHJva2U6IzE4MTgxODtzdHJva2Utd2lkdGg6MS4wOyIvPjx0ZXh0IGZpbGw9IiMwMDAwMDAiIGZvbnQtZmFtaWx5PSJzYW5zLXNlcmlmIiBmb250LXNpemU9IjEzIiBsZW5ndGhBZGp1c3Q9InNwYWNpbmciIHRleHRMZW5ndGg9Ijc0IiB4PSI0OTIiIHk9IjI1My44NDM4Ij5vcGVuVmFsdmUoKTwvdGV4dD48IS0tU1JDPVtUT3luM2k4bTM0TnRkQzhaN1JYMDF2UW9DWTVXalhnMzhnTHN2MVpFSnpmSWdoUUduT2h6dHRFMmhPZDI5UEV3WDZnWDNHZFB1MkdYc3JGZko5bmJFTWc4Sko0c0tlaDRrMDlsUUFITloyem9oaFYyX2gySXJUMEh2ZEFUc2hsQUJIQ3ppemJJR29Sc0tfMjhYZU5SZkZ3V0lRTWJkNFZ6WHlMZTRFdUdMQ0MzQkdXMzR0ZG8zaWh2QVB4X0Rad2NhUXYzemRhZFlOWmVMbUN5dnpSS0RyWnM1eTRSXS0tPjwvZz48L3N2Zz4=;" vertex="1" parent="1">
            <mxGeometry x="595" y="1226" width="584" height="374" as="geometry" />
          </mxCell>
        </UserObject>
        <UserObject label="" plantUmlData="{&#xa;  &quot;data&quot;: &quot;@startuml\nactor User\nparticipant CentralController\nparticipant CloudDatabase\nparticipant NotificationService\nparticipant MobileApp\n\nCentralController -&gt; CloudDatabase: updateDatabase(status)\nCloudDatabase -&gt; CloudDatabase: storeStatus()\nCentralController -&gt; NotificationService: sendNotifications(status)\nNotificationService -&gt; MobileApp: sendNotification(status)\nMobileApp -&gt; User: displayUpdate()\n@enduml\n&quot;,&#xa;  &quot;format&quot;: &quot;svg&quot;&#xa;}" id="mwouuTTg1p4LpOOELwbf-2">
          <mxCell style="shape=image;noLabel=1;verticalAlign=top;aspect=fixed;imageAspect=0;image=data:image/svg+xml,PD94bWwgdmVyc2lvbj0iMS4wIiBlbmNvZGluZz0idXMtYXNjaWkiIHN0YW5kYWxvbmU9Im5vIj8+PHN2ZyB4bWxucz0iaHR0cDovL3d3dy53My5vcmcvMjAwMC9zdmciIHhtbG5zOnhsaW5rPSJodHRwOi8vd3d3LnczLm9yZy8xOTk5L3hsaW5rIiBjb250ZW50U3R5bGVUeXBlPSJ0ZXh0L2NzcyIgaGVpZ2h0PSIzMzJweCIgcHJlc2VydmVBc3BlY3RSYXRpbz0ibm9uZSIgc3R5bGU9IndpZHRoOjY1MHB4O2hlaWdodDozMzJweDtiYWNrZ3JvdW5kOiNGRkZGRkY7IiB2ZXJzaW9uPSIxLjEiIHZpZXdCb3g9IjAgMCA2NTAgMzMyIiB3aWR0aD0iNjUwcHgiIHpvb21BbmRQYW49Im1hZ25pZnkiPjxkZWZzLz48Zz48bGluZSBzdHlsZT0ic3Ryb2tlOiMxODE4MTg7c3Ryb2tlLXdpZHRoOjAuNTtzdHJva2UtZGFzaGFycmF5OjUuMCw1LjA7IiB4MT0iMjIiIHgyPSIyMiIgeTE9Ijc5Ljk4NDQiIHkyPSIyNTIuNTU0NyIvPjxsaW5lIHN0eWxlPSJzdHJva2U6IzE4MTgxODtzdHJva2Utd2lkdGg6MC41O3N0cm9rZS1kYXNoYXJyYXk6NS4wLDUuMDsiIHgxPSIxMTUiIHgyPSIxMTUiIHkxPSI3OS45ODQ0IiB5Mj0iMjUyLjU1NDciLz48bGluZSBzdHlsZT0ic3Ryb2tlOiMxODE4MTg7c3Ryb2tlLXdpZHRoOjAuNTtzdHJva2UtZGFzaGFycmF5OjUuMCw1LjA7IiB4MT0iMjg3IiB4Mj0iMjg3IiB5MT0iNzkuOTg0NCIgeTI9IjI1Mi41NTQ3Ii8+PGxpbmUgc3R5bGU9InN0cm9rZTojMTgxODE4O3N0cm9rZS13aWR0aDowLjU7c3Ryb2tlLWRhc2hhcnJheTo1LjAsNS4wOyIgeDE9IjQyMyIgeDI9IjQyMyIgeTE9Ijc5Ljk4NDQiIHkyPSIyNTIuNTU0NyIvPjxsaW5lIHN0eWxlPSJzdHJva2U6IzE4MTgxODtzdHJva2Utd2lkdGg6MC41O3N0cm9rZS1kYXNoYXJyYXk6NS4wLDUuMDsiIHgxPSI2MDUiIHgyPSI2MDUiIHkxPSI3OS45ODQ0IiB5Mj0iMjUyLjU1NDciLz48dGV4dCBmaWxsPSIjMDAwMDAwIiBmb250LWZhbWlseT0ic2Fucy1zZXJpZiIgZm9udC1zaXplPSIxNCIgbGVuZ3RoQWRqdXN0PSJzcGFjaW5nIiB0ZXh0TGVuZ3RoPSIyOCIgeD0iNSIgeT0iNzguMjM0NCI+VXNlcjwvdGV4dD48ZWxsaXBzZSBjeD0iMjIiIGN5PSIxMy41IiBmaWxsPSIjRTJFMkYwIiByeD0iOCIgcnk9IjgiIHN0eWxlPSJzdHJva2U6IzE4MTgxODtzdHJva2Utd2lkdGg6MC41OyIvPjxwYXRoIGQ9Ik0yMiwyMS41IEwyMiw0OC41IE05LDI5LjUgTDM1LDI5LjUgTTIyLDQ4LjUgTDksNjMuNSBNMjIsNDguNSBMMzUsNjMuNSAiIGZpbGw9Im5vbmUiIHN0eWxlPSJzdHJva2U6IzE4MTgxODtzdHJva2Utd2lkdGg6MC41OyIvPjx0ZXh0IGZpbGw9IiMwMDAwMDAiIGZvbnQtZmFtaWx5PSJzYW5zLXNlcmlmIiBmb250LXNpemU9IjE0IiBsZW5ndGhBZGp1c3Q9InNwYWNpbmciIHRleHRMZW5ndGg9IjI4IiB4PSI1IiB5PSIyNjQuNzg5MSI+VXNlcjwvdGV4dD48ZWxsaXBzZSBjeD0iMjIiIGN5PSIyNzUuMDM5MSIgZmlsbD0iI0UyRTJGMCIgcng9IjgiIHJ5PSI4IiBzdHlsZT0ic3Ryb2tlOiMxODE4MTg7c3Ryb2tlLXdpZHRoOjAuNTsiLz48cGF0aCBkPSJNMjIsMjgzLjAzOTEgTDIyLDMxMC4wMzkxIE05LDI5MS4wMzkxIEwzNSwyOTEuMDM5MSBNMjIsMzEwLjAzOTEgTDksMzI1LjAzOTEgTTIyLDMxMC4wMzkxIEwzNSwzMjUuMDM5MSAiIGZpbGw9Im5vbmUiIHN0eWxlPSJzdHJva2U6IzE4MTgxODtzdHJva2Utd2lkdGg6MC41OyIvPjxyZWN0IGZpbGw9IiNFMkUyRjAiIGhlaWdodD0iMjguOTg0NCIgcng9IjIuNSIgcnk9IjIuNSIgc3R5bGU9InN0cm9rZTojMTgxODE4O3N0cm9rZS13aWR0aDowLjU7IiB3aWR0aD0iMTMzIiB4PSI0OSIgeT0iNTAiLz48dGV4dCBmaWxsPSIjMDAwMDAwIiBmb250LWZhbWlseT0ic2Fucy1zZXJpZiIgZm9udC1zaXplPSIxNCIgbGVuZ3RoQWRqdXN0PSJzcGFjaW5nIiB0ZXh0TGVuZ3RoPSIxMTkiIHg9IjU2IiB5PSI3MC4yMzQ0Ij5DZW50cmFsQ29udHJvbGxlcjwvdGV4dD48cmVjdCBmaWxsPSIjRTJFMkYwIiBoZWlnaHQ9IjI4Ljk4NDQiIHJ4PSIyLjUiIHJ5PSIyLjUiIHN0eWxlPSJzdHJva2U6IzE4MTgxODtzdHJva2Utd2lkdGg6MC41OyIgd2lkdGg9IjEzMyIgeD0iNDkiIHk9IjI1MS41NTQ3Ii8+PHRleHQgZmlsbD0iIzAwMDAwMCIgZm9udC1mYW1pbHk9InNhbnMtc2VyaWYiIGZvbnQtc2l6ZT0iMTQiIGxlbmd0aEFkanVzdD0ic3BhY2luZyIgdGV4dExlbmd0aD0iMTE5IiB4PSI1NiIgeT0iMjcxLjc4OTEiPkNlbnRyYWxDb250cm9sbGVyPC90ZXh0PjxyZWN0IGZpbGw9IiNFMkUyRjAiIGhlaWdodD0iMjguOTg0NCIgcng9IjIuNSIgcnk9IjIuNSIgc3R5bGU9InN0cm9rZTojMTgxODE4O3N0cm9rZS13aWR0aDowLjU7IiB3aWR0aD0iMTA1IiB4PSIyMzUiIHk9IjUwIi8+PHRleHQgZmlsbD0iIzAwMDAwMCIgZm9udC1mYW1pbHk9InNhbnMtc2VyaWYiIGZvbnQtc2l6ZT0iMTQiIGxlbmd0aEFkanVzdD0ic3BhY2luZyIgdGV4dExlbmd0aD0iOTEiIHg9IjI0MiIgeT0iNzAuMjM0NCI+Q2xvdWREYXRhYmFzZTwvdGV4dD48cmVjdCBmaWxsPSIjRTJFMkYwIiBoZWlnaHQ9IjI4Ljk4NDQiIHJ4PSIyLjUiIHJ5PSIyLjUiIHN0eWxlPSJzdHJva2U6IzE4MTgxODtzdHJva2Utd2lkdGg6MC41OyIgd2lkdGg9IjEwNSIgeD0iMjM1IiB5PSIyNTEuNTU0NyIvPjx0ZXh0IGZpbGw9IiMwMDAwMDAiIGZvbnQtZmFtaWx5PSJzYW5zLXNlcmlmIiBmb250LXNpemU9IjE0IiBsZW5ndGhBZGp1c3Q9InNwYWNpbmciIHRleHRMZW5ndGg9IjkxIiB4PSIyNDIiIHk9IjI3MS43ODkxIj5DbG91ZERhdGFiYXNlPC90ZXh0PjxyZWN0IGZpbGw9IiNFMkUyRjAiIGhlaWdodD0iMjguOTg0NCIgcng9IjIuNSIgcnk9IjIuNSIgc3R5bGU9InN0cm9rZTojMTgxODE4O3N0cm9rZS13aWR0aDowLjU7IiB3aWR0aD0iMTQ3IiB4PSIzNTAiIHk9IjUwIi8+PHRleHQgZmlsbD0iIzAwMDAwMCIgZm9udC1mYW1pbHk9InNhbnMtc2VyaWYiIGZvbnQtc2l6ZT0iMTQiIGxlbmd0aEFkanVzdD0ic3BhY2luZyIgdGV4dExlbmd0aD0iMTMzIiB4PSIzNTciIHk9IjcwLjIzNDQiPk5vdGlmaWNhdGlvblNlcnZpY2U8L3RleHQ+PHJlY3QgZmlsbD0iI0UyRTJGMCIgaGVpZ2h0PSIyOC45ODQ0IiByeD0iMi41IiByeT0iMi41IiBzdHlsZT0ic3Ryb2tlOiMxODE4MTg7c3Ryb2tlLXdpZHRoOjAuNTsiIHdpZHRoPSIxNDciIHg9IjM1MCIgeT0iMjUxLjU1NDciLz48dGV4dCBmaWxsPSIjMDAwMDAwIiBmb250LWZhbWlseT0ic2Fucy1zZXJpZiIgZm9udC1zaXplPSIxNCIgbGVuZ3RoQWRqdXN0PSJzcGFjaW5nIiB0ZXh0TGVuZ3RoPSIxMzMiIHg9IjM1NyIgeT0iMjcxLjc4OTEiPk5vdGlmaWNhdGlvblNlcnZpY2U8L3RleHQ+PHJlY3QgZmlsbD0iI0UyRTJGMCIgaGVpZ2h0PSIyOC45ODQ0IiByeD0iMi41IiByeT0iMi41IiBzdHlsZT0ic3Ryb2tlOiMxODE4MTg7c3Ryb2tlLXdpZHRoOjAuNTsiIHdpZHRoPSI3NyIgeD0iNTY3IiB5PSI1MCIvPjx0ZXh0IGZpbGw9IiMwMDAwMDAiIGZvbnQtZmFtaWx5PSJzYW5zLXNlcmlmIiBmb250LXNpemU9IjE0IiBsZW5ndGhBZGp1c3Q9InNwYWNpbmciIHRleHRMZW5ndGg9IjYzIiB4PSI1NzQiIHk9IjcwLjIzNDQiPk1vYmlsZUFwcDwvdGV4dD48cmVjdCBmaWxsPSIjRTJFMkYwIiBoZWlnaHQ9IjI4Ljk4NDQiIHJ4PSIyLjUiIHJ5PSIyLjUiIHN0eWxlPSJzdHJva2U6IzE4MTgxODtzdHJva2Utd2lkdGg6MC41OyIgd2lkdGg9Ijc3IiB4PSI1NjciIHk9IjI1MS41NTQ3Ii8+PHRleHQgZmlsbD0iIzAwMDAwMCIgZm9udC1mYW1pbHk9InNhbnMtc2VyaWYiIGZvbnQtc2l6ZT0iMTQiIGxlbmd0aEFkanVzdD0ic3BhY2luZyIgdGV4dExlbmd0aD0iNjMiIHg9IjU3NCIgeT0iMjcxLjc4OTEiPk1vYmlsZUFwcDwvdGV4dD48cG9seWdvbiBmaWxsPSIjMTgxODE4IiBwb2ludHM9IjI3NS41LDEwNS44OTg0LDI4NS41LDEwOS44OTg0LDI3NS41LDExMy44OTg0LDI3OS41LDEwOS44OTg0IiBzdHlsZT0ic3Ryb2tlOiMxODE4MTg7c3Ryb2tlLXdpZHRoOjEuMDsiLz48bGluZSBzdHlsZT0ic3Ryb2tlOiMxODE4MTg7c3Ryb2tlLXdpZHRoOjEuMDsiIHgxPSIxMTUuNSIgeDI9IjI4MS41IiB5MT0iMTA5Ljg5ODQiIHkyPSIxMDkuODk4NCIvPjx0ZXh0IGZpbGw9IiMwMDAwMDAiIGZvbnQtZmFtaWx5PSJzYW5zLXNlcmlmIiBmb250LXNpemU9IjEzIiBsZW5ndGhBZGp1c3Q9InNwYWNpbmciIHRleHRMZW5ndGg9IjE0OCIgeD0iMTIyLjUiIHk9IjEwNi4yNzM0Ij51cGRhdGVEYXRhYmFzZShzdGF0dXMpPC90ZXh0PjxsaW5lIHN0eWxlPSJzdHJva2U6IzE4MTgxODtzdHJva2Utd2lkdGg6MS4wOyIgeDE9IjI4Ny41IiB4Mj0iMzI5LjUiIHkxPSIxMzcuODEyNSIgeTI9IjEzNy44MTI1Ii8+PGxpbmUgc3R5bGU9InN0cm9rZTojMTgxODE4O3N0cm9rZS13aWR0aDoxLjA7IiB4MT0iMzI5LjUiIHgyPSIzMjkuNSIgeTE9IjEzNy44MTI1IiB5Mj0iMTUwLjgxMjUiLz48bGluZSBzdHlsZT0ic3Ryb2tlOiMxODE4MTg7c3Ryb2tlLXdpZHRoOjEuMDsiIHgxPSIyODguNSIgeDI9IjMyOS41IiB5MT0iMTUwLjgxMjUiIHkyPSIxNTAuODEyNSIvPjxwb2x5Z29uIGZpbGw9IiMxODE4MTgiIHBvaW50cz0iMjk4LjUsMTQ2LjgxMjUsMjg4LjUsMTUwLjgxMjUsMjk4LjUsMTU0LjgxMjUsMjk0LjUsMTUwLjgxMjUiIHN0eWxlPSJzdHJva2U6IzE4MTgxODtzdHJva2Utd2lkdGg6MS4wOyIvPjx0ZXh0IGZpbGw9IiMwMDAwMDAiIGZvbnQtZmFtaWx5PSJzYW5zLXNlcmlmIiBmb250LXNpemU9IjEzIiBsZW5ndGhBZGp1c3Q9InNwYWNpbmciIHRleHRMZW5ndGg9Ijg2IiB4PSIyOTQuNSIgeT0iMTM0LjE4NzUiPnN0b3JlU3RhdHVzKCk8L3RleHQ+PHBvbHlnb24gZmlsbD0iIzE4MTgxOCIgcG9pbnRzPSI0MTEuNSwxNzQuNzI2Niw0MjEuNSwxNzguNzI2Niw0MTEuNSwxODIuNzI2Niw0MTUuNSwxNzguNzI2NiIgc3R5bGU9InN0cm9rZTojMTgxODE4O3N0cm9rZS13aWR0aDoxLjA7Ii8+PGxpbmUgc3R5bGU9InN0cm9rZTojMTgxODE4O3N0cm9rZS13aWR0aDoxLjA7IiB4MT0iMTE1LjUiIHgyPSI0MTcuNSIgeTE9IjE3OC43MjY2IiB5Mj0iMTc4LjcyNjYiLz48dGV4dCBmaWxsPSIjMDAwMDAwIiBmb250LWZhbWlseT0ic2Fucy1zZXJpZiIgZm9udC1zaXplPSIxMyIgbGVuZ3RoQWRqdXN0PSJzcGFjaW5nIiB0ZXh0TGVuZ3RoPSIxNjUiIHg9IjEyMi41IiB5PSIxNzUuMTAxNiI+c2VuZE5vdGlmaWNhdGlvbnMoc3RhdHVzKTwvdGV4dD48cG9seWdvbiBmaWxsPSIjMTgxODE4IiBwb2ludHM9IjU5My41LDIwMi42NDA2LDYwMy41LDIwNi42NDA2LDU5My41LDIxMC42NDA2LDU5Ny41LDIwNi42NDA2IiBzdHlsZT0ic3Ryb2tlOiMxODE4MTg7c3Ryb2tlLXdpZHRoOjEuMDsiLz48bGluZSBzdHlsZT0ic3Ryb2tlOiMxODE4MTg7c3Ryb2tlLXdpZHRoOjEuMDsiIHgxPSI0MjMuNSIgeDI9IjU5OS41IiB5MT0iMjA2LjY0MDYiIHkyPSIyMDYuNjQwNiIvPjx0ZXh0IGZpbGw9IiMwMDAwMDAiIGZvbnQtZmFtaWx5PSJzYW5zLXNlcmlmIiBmb250LXNpemU9IjEzIiBsZW5ndGhBZGp1c3Q9InNwYWNpbmciIHRleHRMZW5ndGg9IjE1OCIgeD0iNDMwLjUiIHk9IjIwMy4wMTU2Ij5zZW5kTm90aWZpY2F0aW9uKHN0YXR1cyk8L3RleHQ+PHBvbHlnb24gZmlsbD0iIzE4MTgxOCIgcG9pbnRzPSIzMywyMzAuNTU0NywyMywyMzQuNTU0NywzMywyMzguNTU0NywyOSwyMzQuNTU0NyIgc3R5bGU9InN0cm9rZTojMTgxODE4O3N0cm9rZS13aWR0aDoxLjA7Ii8+PGxpbmUgc3R5bGU9InN0cm9rZTojMTgxODE4O3N0cm9rZS13aWR0aDoxLjA7IiB4MT0iMjciIHgyPSI2MDQuNSIgeTE9IjIzNC41NTQ3IiB5Mj0iMjM0LjU1NDciLz48dGV4dCBmaWxsPSIjMDAwMDAwIiBmb250LWZhbWlseT0ic2Fucy1zZXJpZiIgZm9udC1zaXplPSIxMyIgbGVuZ3RoQWRqdXN0PSJzcGFjaW5nIiB0ZXh0TGVuZ3RoPSIxMDAiIHg9IjM5IiB5PSIyMzAuOTI5NyI+ZGlzcGxheVVwZGF0ZSgpPC90ZXh0PjwhLS1TUkM9W1JQMG4yaUNtMzRMdGR5OVpDbEcyNkdlYk5UaWJ2MDJBaE9CME1DUEkyaHJ6YXExRHROZUl1bC1keHN6bW9qZEVXamFhbzRnRTRhSXI4cVJENDRSVTFlVm1nbVBVX0hLSzVYMmliM2loRlNZMTRpUzl5dkRTaFR6dWVPMk5iOHB2WXgyZFN0cnZpNmxvZUZaUEVyN0dMTmZKa0hnT1I5cm1FaW5UdG12Z0Y3SlpDRmZsR0tmWW14dlZBTk4tc084TXBteGk3cHJPSnY4MmxFUVpOVFVfMEcwMF0tLT48L2c+PC9zdmc+;" vertex="1" parent="1">
            <mxGeometry x="1367" y="1231" width="650" height="332" as="geometry" />
          </mxCell>
        </UserObject>
      </root>
    </mxGraphModel>
  </diagram>
</mxfile>
